<?xml version="1.0" encoding="utf-8"?>
<!-- Generator: Adobe Illustrator 22.1.0, SVG Export Plug-In . SVG Version: 6.00 Build 0)  -->
<svg version="1.1" id="Layer_1" xmlns="http://www.w3.org/2000/svg" xmlns:xlink="http://www.w3.org/1999/xlink" x="0px" y="0px"
	 width="500px" height="500px" viewBox="0 0 500 500" style="enable-background:new 0 0 500 500;" xml:space="preserve">
<style type="text/css">
	.st0{fill:#2F3233;stroke:#020202;stroke-width:7.285;stroke-miterlimit:10;}
	.st1{fill:#541B7A;stroke:#050505;stroke-width:7.285;stroke-miterlimit:10;}
	.st2{fill:#515151;}
	.st3{fill:#441668;}
	.st4{fill:#E8C59E;}
	.st5{fill:#EAE5DC;}
	.st6{fill:#DDB58E;}
	.st7{fill:#CCA281;}
	.st8{fill:#2F3233;}
	.st9{fill:#CC7D2E;}
</style>
<path class="st0" d="M395,287.6c0,34.7-28.1,62.8-62.8,62.8c-7.3,0-14.3-1.3-20.9-3.5c-9.5,13.4-15.7,19.7-15.7,19.7h-90.5
	c0,0-6-7.2-14.7-20.1c-6.8,2.6-14.3,4-22,4c-34.7,0-62.8-28.1-62.8-62.8c0-22.5,11.8-42.3,29.6-53.4
	c-12.4-31.9-22.5-66.3-21.9-107.5c0.8-57.9,34.3-118.2,135-118.2c88.1,0,109,40.3,104.8,67.8c0,0,13.3,1.2,20.4,10.3
	c11.9,15.5,13.4,81.5-1.1,128.6c-2.1,6.7-4.2,13.2-6.3,19.4C383.5,245.8,395,265.4,395,287.6z"/>
<path class="st1" d="M456,391.1c-15.9-57.1-95.8-50.7-130.2-67.1s-29.1-71.4-33.5-80.9h-84.1c-4.4,9.6,1,64.6-33.5,80.9
	C140.3,340.3,60.4,334,44.5,391.1c-8.8,31.5-8.4,41.1-10.8,76c0,0,109.6,23,214,23s219-23,219-23C464.4,432.2,464.8,422.6,456,391.1
	z"/>
<path class="st2" d="M174.8,324c0,0-25.7,30.4-50.2,37.6c0,0,51.1,84,125.7,121.6L174.8,324z"/>
<path class="st2" d="M325.8,324c0,0,25.7,30.4,50.2,37.6c0,0-51.1,84-125.7,121.6L325.8,324z"/>
<path class="st3" d="M325.8,324c-9.7-4.6-16.2-12.2-20.7-21h-42.9h0h-23.9h0h-42.9c-4.5,8.8-11,16.4-20.7,21
	c-0.6,0.3-13.4,26.5-44.2,39.1c0,0,14.3,22.5,45,56.7s74.6,63.4,74.6,63.4s43.9-29.2,74.6-63.4s45-56.7,45-56.7
	C339.2,350.4,326.4,324.2,325.8,324z"/>
<path class="st4" d="M310.8,311.9c-17.8-22.6-14.9-61-18.4-68.8h-84.1c-3.6,7.8-0.6,46.2-18.4,68.8c7.1,80.4,60.5,171.3,60.5,171.3
	S303.5,393,310.8,311.9z"/>
<path class="st5" d="M212.9,403.5c17.2,45.2,37.4,79.6,37.4,79.6s20.2-34.3,37.5-79.6H212.9z"/>
<path class="st6" d="M281.2,336.5c6.7,3.2,15.1,5.5,24.5,7.6c2.3-10.8,4.1-21.6,5-32.3c-17.8-22.6-14.9-61-18.4-68.8h-44.5
	C247.8,243,246.8,320.1,281.2,336.5z"/>
<path class="st7" d="M196.9,299.8c13.9,12,30.3,24,53.3,27.4c23-3.5,39.3-15.6,53.3-27.7c-11.6-22.6-8-49.6-11.2-56.5h-84.1
	C205.1,249.9,208.6,277.2,196.9,299.8z"/>
<ellipse transform="matrix(0.177 -0.9842 0.9842 0.177 102.5507 496.8134)" class="st6" cx="348.3" cy="187.1" rx="32.3" ry="17.6"/>
<ellipse transform="matrix(0.9842 -0.177 0.177 0.9842 -30.7183 29.8481)" class="st4" cx="151.9" cy="187.1" rx="17.6" ry="32.3"/>
<path class="st4" d="M341.5,79.5L251,93.4c0,0-32.1,1.4-58.3,14.7c-24,12.2-42.3,36.1-42.6,42.9c-2.3,66.7,11.3,158.2,100,171.5
	C392.7,301.1,341.5,79.5,341.5,79.5z"/>
<path class="st6" d="M250.2,322.5c142.6-21.5,91.4-243.1,91.4-243.1h-21.4c5.9,92.6,13.9,141.7-19.7,195.3
	C273.9,317.3,250.2,322.5,250.2,322.5z"/>
<path class="st6" d="M338.1,69.6c0,0-49.4,23.8-123.2,22.5c-65-1.1-62.4,105.1-63,108.9c0,0,16.5-65.7,61.7-80
	c38.8-12.3,63-1.6,90.5,1c30.6,2.9,40.8-20.3,40.8-20.3L338.1,69.6z"/>
<path class="st8" d="M369.9,126.4l-17.5-43.1c0,0-5.4-12.5-16.9-22.8c0,0-46.8,27.5-120.6,25.3c-78.8-2.3-72,69.3-63,115.2
	c0,0,3.1-50,42.1-76.7c26.8-18.3,59.5-18.1,86.6-12.8c25.8,5.1,41.7,1.6,51.4-4.2c6.9,9,15.6,24.4,18.5,47.7L369.9,126.4z"/>
<circle class="st9" cx="354.5" cy="212.5" r="6.6"/>
<circle class="st9" cx="146.1" cy="212.5" r="6.6"/>
</svg>
