<?xml version="1.0"?>
<svg xmlns="http://www.w3.org/2000/svg" id="Layer_35" enable-background="new 0 0 64 64" height="512px" viewBox="0 0 64 64" width="512px" class=""><g><path d="m2 57h13v5h-13z" fill="#838f9b" data-original="#838F9B" class="active-path" data-old_color="#838f9b" style="fill:#541B7A"/><path d="m43 57h19v5h-19z" fill="#838f9b" data-original="#838F9B" class="active-path" data-old_color="#838f9b" style="fill:#541B7A"/><path d="m43 57v5h-28v-5-1c0-2.21 1.79-4 4-4h20 .03c2.2.02 3.97 1.8 3.97 4z" fill="#aab2bd" data-original="#AAB2BD" class=""/><path d="m58 12h-52v36h52z" fill="#e6e9ed" data-original="#E6E9ED" class=""/><path d="m33 42h2.69c2.12 0 4.15-.84 5.65-2.34l7.83-7.83c.53-.53 1.25-.83 2-.83 1.56 0 2.83 1.27 2.83 2.83v.01c0 .74-.29 1.46-.82 1.99l-12.06 12.17-.22.22c-1.07 1-1.73 2.34-1.87 3.78-.01 0-.02 0-.03 0h-20c0-1.42.3-2.78.84-4 1.54-3.53 5.06-6 9.16-6h3z" fill="#3bafda" data-original="#3BAFDA" class="" data-old_color="#3bafda" style="fill:#541B7A"/><path d="m32 28c3.87 0 7 3.13 7 7s-3.13 7-7 7-7-3.13-7-7c0-1.32.36-2.55 1-3.6.89-1.49 2.31-2.61 4-3.11.63-.19 1.3-.29 2-.29z" fill="#f0d0b4" data-original="#F0D0B4"/><g fill="#fcd770"><path d="m30 22v6.29c-1.69.5-3.11 1.62-4 3.11v-9.4z" data-original="#000000" class=""/><path d="m18 16h4v16h-4z" data-original="#000000" class=""/><path d="m10 26h4v6h-4z" data-original="#000000" class=""/></g><path d="m62 2v22h-4-22v-12-10z" fill="#ffeaa7" data-original="#FFEAA7" class="" data-old_color="#ffeaa7" style="fill:#D1D725"/><path d="m49 6c3.87 0 7 3.13 7 7 0 1.94-.78 3.68-2.05 4.95l-4.95-4.95z" fill="#69d6f4" data-original="#69D6F4" class="" data-old_color="#69d6f4" style="fill:#541B7A"/><path d="m49 13 4.95 4.95c-1.27 1.27-3.01 2.05-4.95 2.05-3.87 0-7-3.13-7-7z" fill="#ccd1d9" data-original="#CCD1D9" class="" data-old_color="#ccd1d9" style="fill:#69D6F4"/><path d="m49 6v7h-7c0-3.87 3.13-7 7-7z" fill="#ff826e" data-original="#FF826E" class="" style="fill:#E6E9ED" data-old_color="#ff826e"/><path d="m59 49v-24h4v-24h-28v10h-30v38h13.426c-.192.675-.322 1.375-.381 2.096-2.301.448-4.045 2.474-4.045 4.904h-13v7h13 30 19v-7h-19c0-2.336-1.617-4.287-3.785-4.833.244-.811.696-1.553 1.326-2.167zm-38.941 2c.5-4.493 4.317-8 8.941-8h4 2.687c2.404 0 4.664-.936 6.364-2.636l7.828-7.828c.345-.346.804-.536 1.292-.536 1.009 0 1.829.82 1.829 1.836 0 .485-.188.942-.53 1.287l-12.257 12.37c-1.01.947-1.69 2.172-2.005 3.507zm8.941-23.411c-.726.295-1.398.692-2 1.176v-5.765h2zm3 1.411c3.309 0 6 2.691 6 6s-2.691 6-6 6-6-2.691-6-6 2.691-6 6-6zm5-26h24v20h-24zm-30 44v-34h28v12h22v22h-13.484l10.375-10.469c.715-.721 1.109-1.678 1.109-2.702 0-2.112-1.717-3.829-3.829-3.829-1.022 0-1.984.398-2.707 1.122l-7.828 7.828c-.868.868-1.926 1.474-3.078 1.792 1.503-1.455 2.442-3.49 2.442-5.742 0-4.411-3.589-8-8-8-.339 0-.672.028-1 .069v-6.069h-6v10.136c-.636 1.147-1 2.463-1 3.864 0 2.498 1.152 4.73 2.951 6.199-3.38.64-6.212 2.83-7.737 5.801zm-4 14v-3h11v3zm58-3v3h-17v-3zm-19-2v5h-26v-5c0-1.654 1.346-3 3-3h20c1.654 0 3 1.346 3 3z" data-original="#000000" class=""/><path d="m15 25h-6v8h6zm-2 6h-2v-4h2z" data-original="#000000" class=""/><path d="m23 15h-6v18h6zm-2 16h-2v-14h2z" data-original="#000000" class=""/><path d="m49 5c-4.411 0-8 3.589-8 8s3.589 8 8 8 8-3.589 8-8-3.589-8-8-8zm-1 2.09v4.91h-4.91c.424-2.507 2.403-4.486 4.91-4.91zm-4.91 6.91h5.496l3.885 3.885c-.981.699-2.177 1.115-3.471 1.115-2.967 0-5.431-2.167-5.91-5zm10.795 2.471-3.885-3.885v-5.496c2.833.478 5 2.942 5 5.91 0 1.294-.416 2.49-1.115 3.471z" data-original="#000000" class=""/><path d="m9 35h2v2h-2z" data-original="#000000" class=""/><path d="m13 35h2v2h-2z" data-original="#000000" class=""/><path d="m17 35h2v2h-2z" data-original="#000000" class=""/><path d="m9 39h10v2h-10z" data-original="#000000" class=""/><path d="m9 43h10v2h-10z" data-original="#000000" class=""/></g> </svg>
