<?xml version="1.0"?>
<svg xmlns="http://www.w3.org/2000/svg" id="Layer_1" data-name="Layer 1" viewBox="0 0 512 512" width="512px" height="512px" class=""><g><title>Female Account manager</title><polygon points="493 439.82 493 459.59 463 459.59 43 459.59 13 459.59 13 439.82 13 439.59 493 439.59 493 439.82" style="fill:#420C67" data-original="#2561A1" class="" data-old_color="#2561A1"/><path d="M202.19,378.05H435.5a20,20,0,0,1,16.75,9.08L493,439.59H13l52.33-54.17a20.005,20.005,0,0,1,15.5-7.37H202.19Z" style="fill:#D1D826" data-original="#6FE3FF" class="active-path" data-old_color="#6FE3FF"/><circle cx="424" cy="90" r="75" style="fill:#D1D826" data-original="#6FE3FF" class="active-path" data-old_color="#6FE3FF"/><polygon points="463 462.42 463 497 43 497 43 462.42 43 459.59 463 459.59 463 462.42" style="fill:#D1D826" data-original="#6FE3FF" class="active-path" data-old_color="#6FE3FF"/><path d="M346,345.86v32.19H309.14V345.86a35.1,35.1,0,0,1,18.43-28.06A35.124,35.124,0,0,1,346,345.86Z" style="fill:#E48E66" data-original="#E48E66" class="" data-old_color="#E48E66"/><path d="M339.1,206.91a17.128,17.128,0,0,1,.48,4.01,16.764,16.764,0,0,1-16.77,16.76h-1.13a65.88,65.88,0,0,1-131.69,0h-1.18a16.785,16.785,0,0,1-16.29-20.77c1.74-7.11,8.66-10.52,14.98-9.32h.53v-.06c9.7-30.87,29.87-44.05,43.9-49.61l.01-.01C242.7,160.52,259.85,167,292.54,169c0,0,6.38,25.85,31.1,28.49v.01h.48A12.784,12.784,0,0,1,339.1,206.91Z" style="fill:#f8ec7d" data-original="#F8EC7D" class=""/><path d="M326.7,317.35l.87.45a35.1,35.1,0,0,0-18.43,28.06v32.19H202.19V345.86a35.143,35.143,0,0,0-18.09-27.88q.6-.33,1.2-.63l30-10.82v6.43l20.26,47.28,20.27-13.51,20.26,13.51,20.27-47.28V306.4Z" style="fill:#E48E66" data-original="#E48E66" class="" data-old_color="#E48E66"/><path d="M324.09,153.66a69.807,69.807,0,0,1,1.27,18.97l-1.72,24.86c-24.72-2.64-31.1-28.49-31.1-28.49-32.69-2-49.84-8.48-60.6-21.09-7.62-8.91-12.04-20.88-16.5-36.49a1.465,1.465,0,0,0-.14-.28s.18-.12.51-.32c4.59-2.81,39.13-22.67,69.85-6a108.215,108.215,0,0,1,10.19,6.26,68.485,68.485,0,0,1,14.67,13.56A69.764,69.764,0,0,1,324.09,153.66Z" style="fill:#E48E66" data-original="#E48E66" class="" data-old_color="#E48E66"/><path d="M296.53,110.09l-.68.99a108.215,108.215,0,0,0-10.19-6.26c-30.72-16.67-65.26,3.19-69.85,6l-.34-.73a40.53,40.53,0,1,1,81.06,0Z" style="fill:#E48E66" data-original="#AF593C" class="" data-old_color="#AF593C"/><polygon points="296.36 306.4 296.36 312.96 276.09 360.24 255.83 346.73 277.78 321.13 277.78 321.12 296.36 299.45 296.36 306.4" style="fill:#E48E66" data-original="#AF593C" class="" data-old_color="#AF593C"/><path d="M277.78,321.12v.01l-21.95,25.6-21.96-25.62-.01-.01-.01-29.29v-3.94l.07-.22a66.181,66.181,0,0,0,43.78.01l.07.21v4Z" style="fill:#f8ec7d" data-original="#F8EC7D" class=""/><polygon points="233.86 321.1 233.87 321.11 255.83 346.73 235.56 360.24 215.3 312.96 215.3 306.53 215.3 299.45 233.86 321.1" style="fill:#E48E66" data-original="#AF593C" class="" data-old_color="#AF593C"/><path d="M231.94,147.91l-.01.01c-14.03,5.56-34.2,18.74-43.9,49.61l-1.72-24.9a69.6,69.6,0,0,1,28.99-61.49,1.465,1.465,0,0,1,.14.28C219.9,127.03,224.32,139,231.94,147.91Z" style="fill:#E48E66" data-original="#AF593C" class="" data-old_color="#AF593C"/><path d="M202.19,345.86v32.19H166V345.86a35.123,35.123,0,0,1,18.1-27.88A35.143,35.143,0,0,1,202.19,345.86Z" style="fill:#E48E66" data-original="#E48E66" class="" data-old_color="#E48E66"/><path d="M309.14,378.05H435.5a20,20,0,0,1,16.75,9.08L493,439.59H13l52.33-54.17a20.005,20.005,0,0,1,15.5-7.37H309.14Z" style="fill:none;stroke:#63316d;stroke-linejoin:round;stroke-width:12px"/><polyline points="13 439.82 13 459.59 43 459.59 463 459.59 493 459.59 493 439.82" style="fill:none;stroke:#63316d;stroke-linejoin:round;stroke-width:12px"/><polyline points="43 462.42 43 497 463 497 463 462.42" style="fill:none;stroke:#63316d;stroke-linejoin:round;stroke-width:12px"/><circle cx="424" cy="90" r="75" style="fill:none;stroke:#63316d;stroke-linecap:round;stroke-linejoin:round;stroke-width:12px"/><path d="M402.28,114.17A21.72,21.72,0,1,0,424,92.45a21.72,21.72,0,1,1,21.72-21.72" style="fill:none;stroke:#63316d;stroke-linecap:round;stroke-linejoin:round;stroke-width:12px"/><line x1="424" y1="37.07" x2="424" y2="48.84" style="fill:none;stroke:#63316d;stroke-linecap:round;stroke-linejoin:round;stroke-width:12px"/><polyline points="424 135.87 424 135.88 424 148.81" style="fill:none;stroke:#63316d;stroke-linecap:round;stroke-linejoin:round;stroke-width:12px"/><polyline points="233.86 321.11 233.86 321.1 233.85 291.81 233.85 287.87" style="fill:none;stroke:#63316d;stroke-linecap:round;stroke-linejoin:round;stroke-width:12px"/><polyline points="277.77 287.87 277.77 291.87 277.78 321.12" style="fill:none;stroke:#63316d;stroke-linecap:round;stroke-linejoin:round;stroke-width:12px"/><path d="M166,378.45V345.86a35.123,35.123,0,0,1,18.1-27.88q.6-.33,1.2-.63l30-10.82" style="fill:none;stroke:#63316d;stroke-linejoin:round;stroke-width:12px"/><path d="M296.36,306.4l30.34,10.95.87.45A35.124,35.124,0,0,1,346,345.86v32.59" style="fill:none;stroke:#63316d;stroke-linejoin:round;stroke-width:12px"/><path d="M323.68,197.49h-.04c-24.72-2.64-31.1-28.49-31.1-28.49-32.69-2-49.84-8.48-60.6-21.09-7.62-8.91-12.04-20.88-16.5-36.49a1.465,1.465,0,0,0-.14-.28s.18-.12.51-.32c4.59-2.81,39.13-22.67,69.85-6a108.215,108.215,0,0,1,10.19,6.26,68.485,68.485,0,0,1,14.67,13.56,69.356,69.356,0,0,1,14.84,47.99l-1.72,24.86v.01h.48a12.784,12.784,0,0,1,14.98,9.41,17.128,17.128,0,0,1,.48,4.01,16.764,16.764,0,0,1-16.77,16.76h-1.13a65.88,65.88,0,0,1-131.69,0h-1.18a16.785,16.785,0,0,1-16.29-20.77c1.74-7.11,8.66-10.52,14.98-9.32h.53v-.06l-1.72-24.9a69.6,69.6,0,0,1,28.99-61.49" style="fill:none;stroke:#63316d;stroke-linecap:round;stroke-linejoin:round;stroke-width:12px"/><path d="M231.93,147.92c-14.03,5.56-34.2,18.74-43.9,49.61-.01.01-.01.01-.01.02" style="fill:none;stroke:#63316d;stroke-linecap:round;stroke-linejoin:round;stroke-width:12px"/><polygon points="255.83 346.73 235.56 360.24 215.3 312.96 215.3 306.53 215.3 299.45 233.86 321.1 233.87 321.11 255.83 346.73" style="fill:none;stroke:#63316d;stroke-linecap:round;stroke-linejoin:round;stroke-width:12px"/><polygon points="255.83 346.73 276.09 360.24 296.36 312.96 296.36 306.4 296.36 299.45 277.78 321.12 277.78 321.13 255.83 346.73" style="fill:none;stroke:#63316d;stroke-linecap:round;stroke-linejoin:round;stroke-width:12px"/><line x1="215.3" y1="299.38" x2="233.68" y2="291.81" style="fill:none;stroke:#63316d;stroke-linecap:round;stroke-linejoin:round;stroke-width:12px"/><line x1="296.36" y1="299.45" x2="277.98" y2="291.87" style="fill:none;stroke:#63316d;stroke-linecap:round;stroke-linejoin:round;stroke-width:12px"/><path d="M215.47,110.09a40.53,40.53,0,1,1,81.06,0" style="fill:none;stroke:#63316d;stroke-linecap:round;stroke-linejoin:round;stroke-width:12px"/><path d="M202.19,378.45V345.86a35.143,35.143,0,0,0-18.09-27.88c-.4-.21-.8-.43-1.21-.63" style="fill:none;stroke:#63316d;stroke-linejoin:round;stroke-width:12px"/><path d="M309.14,378.45V345.86a35.1,35.1,0,0,1,18.43-28.06l.87-.45" style="fill:none;stroke:#63316d;stroke-linejoin:round;stroke-width:12px"/></g> </svg>
