<?xml version="1.0" encoding="utf-8"?>
<!-- Generator: Adobe Illustrator 22.1.0, SVG Export Plug-In . SVG Version: 6.00 Build 0)  -->
<svg version="1.1" xmlns="http://www.w3.org/2000/svg" xmlns:xlink="http://www.w3.org/1999/xlink" x="0px" y="0px" width="500px"
	 height="500px" viewBox="0 0 500 500" style="enable-background:new 0 0 500 500;" xml:space="preserve">
<style type="text/css">
	.st0{fill:#F4B16E;}
	.st1{fill:#541B7A;stroke:#0F0F0F;stroke-width:7.2848;stroke-miterlimit:10;}
	.st2{fill:none;stroke:#0F0F0F;stroke-width:7.2848;stroke-linecap:round;stroke-miterlimit:10;}
	.st3{fill:none;stroke:#0F0F0F;stroke-width:7.2848;stroke-miterlimit:10;}
</style>
<g id="Layer_2">
	<g>
		<g>
			<path class="st0" d="M206.2,406.3c12.6,0,24.6-11.1,24-24c-0.6-13-10.6-24-24-24c-12.6,0-24.6,11.1-24,24
				C182.7,395.3,192.7,406.3,206.2,406.3L206.2,406.3z"/>
		</g>
	</g>
	<g>
		<g>
			<path class="st0" d="M206.2,405.6c33.6,2.7,67.3,2.7,100.8,0c12.5-1,24.7-10.3,24-24c-0.5-12.1-10.6-25.1-24-24
				c-33.6,2.7-67.3,2.8-100.8,0c-12.6-1-24.6,11.8-24,24C182.8,395.5,192.8,404.6,206.2,405.6L206.2,405.6z"/>
		</g>
	</g>
	<g>
		<g>
			<path class="st0" d="M313.6,335.1c-17.8,1-35.7,2-53.5,0.4c-4.2-0.4-8.4-0.9-12.5-1.4c-1-0.1-1.9-0.2-2.9-0.4
				c3.2,0.4,3.4,0.5,0.6,0.1c-3.4-0.5-6.8-0.9-10.2-1.4c-9-1.2-18-2.2-27-2.6c-12.6-0.5-24.6,11.4-24,24c0.6,13.4,10.6,23.5,24,24
				c9,0.4,18.1,1.3,27,2.6c-0.8-0.1-1.7-0.2-2.5-0.3c1.3,0.2,2.6,0.3,3.8,0.5c3.4,0.5,6.8,0.9,10.2,1.4c4.5,0.6,9,1.1,13.5,1.5
				c17.8,1.6,35.7,0.6,53.5-0.4c12.5-0.7,24.6-10.5,24-24C337.1,346.7,327,334.4,313.6,335.1L313.6,335.1z"/>
		</g>
	</g>
	<g>
		<g>
			<path class="st0" d="M205.4,322.3c2.5,0,11.6,2.5,12.8,6.8c-0.3-1-1.5-2.6-2.1-3.5c-2-3.2-4.3-6.3-6.9-9
				c-4.1-4.1-9.7-7.2-15.4-8.2c-3.9-0.7-7.2-0.9-11.1-0.4c-1.6,0.2-3.2,0.4-4.8,0.7c-2.1,0.4-2.1,0.4-0.1,0.1c2.1-0.2,2-0.3-0.4-0.2
				c-0.6,0-1.2-0.1-1.8-0.1c-1.9-0.1-3.8-0.4-5.6-0.6c-3.6-0.3-7.2-0.6-10.8-0.7c-7.5-0.3-15.1-0.2-22.6,0.4
				c-12.5,0.8-24.6,10.4-24,24c0.6,12.3,10.6,25,24,24c7.2-0.5,14.4-0.7,21.6-0.4c7.3,0.3,14.8,1.8,22,1.3c2.6-0.2,6.6,0.2,8.9-1.2
				c2.9-0.5,2.1-0.6-2.5-0.3c-4.4,0.6-8.2-0.8-11.5-4.4c3,2.7-2.7-4.8-0.6-0.8c0.5,1,1.1,2,1.7,2.9c6.5,10.4,16.4,17.7,29.1,17.7
				c12.6,0,24.6-11,24-24C228.8,333.4,218.9,322.3,205.4,322.3L205.4,322.3z"/>
		</g>
	</g>
	<g>
		<g>
			<path class="st0" d="M137.8,389.6c11.6,1.5,23.2,2.8,34.9,3.9c12.6,1.3,24.6-12,24-24c-0.6-14.1-10.6-22.7-24-24
				c-11.6-1.2-23.3-2.5-34.9-3.9c-5.7-0.7-13.2,3.2-17,7c-4.2,4.2-7.3,11-7,17c0.3,6.2,2.3,12.7,7,17
				C125.8,387.1,131.1,388.7,137.8,389.6L137.8,389.6z"/>
		</g>
	</g>
	<g>
		<g>
			<path class="st0" d="M242.6,389.5c-6.3,0.7-12.6,0.9-18.9,0.5c-0.7-0.1-6.1-0.5-2.5-0.2c3.6,0.3-1.7-0.3-2.4-0.4
				c-3-0.6-6-1.3-9-2.1c-11.5-3.3-22.3-8.3-33.6-12.3c-2.8-1-5.6-1.9-8.5-2.7c-1.4-0.4-7.3-2.9-8.3-2.4c0.5-0.3,4.3,2,1.4,0.3
				c2.7,2.3,3.5,2.8,2.1,1.5c-0.5-0.5-1-1-1.4-1.5c1,0.6,2.7,4.2,1.3,1.4c-0.2-0.5-2.4-4.8-0.7-1.1c1.6,3.7,0-0.4-0.3-1.3
				c-0.4-1.2-0.7-2.5-0.9-3.7c-0.3-1.4-0.9-3.1-0.9-4.5c-0.3,5.5,0.3,1.7,0.2,0c-0.2-3-0.2-6.1,0-9.1c0.1-0.9,0.1-1.8,0.2-2.7
				c-0.1,0.9-0.2,1.9-0.4,2.8c-0.3-1.5,0.8-4,1.1-5.4c2.8-12.2-3.8-26.6-16.8-29.6c-12.3-2.8-26.5,3.7-29.6,16.8
				c-3.8,16.1-4.3,34.4,1.3,50.2c2.9,8.3,6.9,16,13.3,22.1c7.2,7,16.1,9.8,25.5,12.4c13.2,3.7,25.6,9.9,38.7,14
				c15.6,4.9,32.6,6.8,49,5c6.6-0.7,12.1-2.2,17-7c4.2-4.2,7.3-11,7-17C266.1,401.7,255.9,388,242.6,389.5L242.6,389.5z"/>
		</g>
	</g>
	<g>
		<g>
			<path class="st0" d="M126.4,354.9c12.6,0,24.6-11.1,24-24c-0.6-13-10.6-24-24-24c-12.6,0-24.6,11.1-24,24
				C103,343.9,112.9,354.9,126.4,354.9L126.4,354.9z"/>
		</g>
	</g>
	<g>
		<g>
			<path class="st0" d="M108.3,394.5c-6.1,15.5,1.2,34.1,17.5,39.2c9.5,3,21.3,1.5,31.2,1.6c4.8,0,9.7,0,14.5,0.1c2.3,0,4.5,0,6.8,0
				c-0.2,0,3,0.2,3,0.1c-1.1-0.2-2.3-0.3-3.4-0.5c2,0.6,2,0.5,0-0.2c-3.5-1.4,1.2,1.1,2.3,1.8c1.5,1,2.9,1.9,4.5,2.7
				c3.1,1.5,6.1,2.8,9.4,3.5c2.1,0.5,5.4,0.8,7.9,1.1c-1.1-0.1-2.2-0.3-3.3-0.4c1.9,0.6,1.9,0.6-0.1-0.2c-3.1-1.1-1-0.4-0.2,0.2
				c0.8,0.6,1.7,1.1,2.5,1.7c1.6,1.1,3.2,2.1,4.9,3.1c5.2,3.1,10.8,5.4,16.4,7.6c9.4,3.7,19.5,5.4,29.6,6.2
				c9.5,0.7,18.9-0.2,28.4,0.1c9.5,0.3,18.7,2.2,28.2,1.9c11.3-0.4,23.4-1.5,34.4-4.2c6.8-1.6,14.1-5.3,18.9-10.4
				c2.3-2.5,4.4-5.3,6.3-8.1c0.2-0.3,1.5-1.8,1.6-2.3c-0.7,0.9-1.4,1.8-2.1,2.7c1.8-1.8,1.1-1.4-1.8,1.1
				c10.3-7.2,16.1-21.4,8.6-32.9c-6.6-10.2-21.9-16.3-32.9-8.6c-5.6,3.9-8.9,7.3-12.9,12.9c-0.5,0.8-3.4,4.6-0.9,1.5
				c2.3-2.9,0.7-0.7,0.1-0.3c0.9-0.7,4.2-2.6,1.4-1.2c0.2-0.1,4.6-1.3,2.3-1.1c-0.7,0.1-1.5,0.4-2.2,0.5c-1.8,0.4-3.6,0.6-5.4,0.9
				c-0.9,0.1-1.9,0.4-2.8,0.4c0.2,0,4.5-0.5,1.6-0.2c-2.2,0.2-4.4,0.5-6.7,0.7c-16.1,1.5-32.1-1.7-48.2-1.3
				c-4.1,0.1-8.2,0.2-12.3,0.1c-1.9-0.1-3.7-0.3-5.6-0.4c-2.7-0.1,2,0.3,2.2,0.3c-0.9-0.4-2.4-0.4-3.4-0.6
				c-3.6-0.7-7.2-1.7-10.7-2.9c-0.8-0.3-5.9-2.2-2.7-1c3,1.1,0.4,0.1-0.2-0.2c-1-0.5-2-1-3-1.6c-8.5-4.6-15.5-10.2-25.5-11.5
				c-1.3-0.2-3.2-0.6-4.7-0.6c1.8,0.1,3.1,0.5,4.8,1c3.4,1.1-0.7-0.6-1.7-1.3c-4.2-2.8-8.6-5.3-13.6-6.7c-9.7-2.6-20.7-1.5-30.6-1.6
				c-4.5,0-9,0-13.6-0.1c-2.6,0-5.2,0-7.8,0c-0.9,0-2-0.2-2.9,0c-1.6-0.1-1.3,0.1,1,0.3c2,0.2,3.9,0.8,5.7,1.7
				c2.9,2.9,5.7,5.7,8.6,8.6c0.5,1.3,0.9,2.6,1.4,3.9c-0.7,9.4-0.6,12.2,0.2,8.6c0.4-0.9,0.6-2.1,1-3c4.6-11.7-5.1-26.9-16.8-29.6
				C124.1,374.6,113.3,382,108.3,394.5L108.3,394.5z"/>
		</g>
	</g>
	<g>
		<g>
			<path class="st0" d="M359.3,378.1c-5.8,1-11.3,3.5-17.1,4.8c-1.5,0.3-3,0.6-4.5,0.9c-3.9,0.8,0.7,0.3,0.9,0
				c-0.5,0.9-8.3,0.8-9.2,0.8c-12,0.7-24.1,0.3-36.1-0.1c-24.8-0.8-49.6-2.6-74.3-5.7c-5.7-0.7-13.2,3.2-17,7c-4.2,4.2-7.3,11-7,17
				c0.3,6.2,2.3,12.7,7,17c5,4.6,10.3,6.2,17,7c25.3,3.1,50.7,4.9,76.2,5.7c12,0.4,24,0.8,36,0c7.7-0.5,15.4-1.5,22.9-3.1
				c6.1-1.3,11.9-3.9,18-5c12.4-2.2,20.5-18,16.8-29.6C384.6,381.5,372.6,375.7,359.3,378.1L359.3,378.1z"/>
		</g>
	</g>
	<g>
		<g>
			<path class="st0" d="M330,417.3c9.2-0.8,18.7-1.5,27.3-4.9c4.9-1.9,9.1-3.8,13.2-6.8c8.4-6.2,12.7-12.4,13.8-23.3
				c0.9-8.5-5.3-16.4-11.9-20.8c-7-4.6-15.4-4.3-23.1-2.3c-1.8,0.3-1.2,0.2,1.9-0.2c-0.9,0.1-1.8,0.2-2.7,0.2
				c-2.1,0.1-4.2,0.1-6.4,0c-12.6-0.5-24.6,11.4-24,24c0.6,13.4,10.6,23.5,24,24c3,0.1,6,0.1,9.1-0.2c2.7-0.3,5.5-0.7,8.2-1.1
				c1.5-0.2,7.8-0.8,0.1-0.2c-4-1.1-8.1-2.2-12.1-3.3c0.3,0.2,0.5,0.4,0.8,0.5c-4-6.9-7.9-13.8-11.9-20.8c0,0.3-0.1,0.5-0.1,0.8
				c2.3-5.7,4.7-11.3,7-17c-1.5,1.9,1.4-0.9,1.9-1c-0.8,0.2-1.9,1.2-2.7,1.7c-3.3,2.2,1.5-0.6,1.4-0.4c0,0.4-3.4,1.2-3.8,1.3
				c-1.1,0.3-2.2,0.6-3.3,0.8c-0.7,0.2-4.6,0.6-1.1,0.3c3.5-0.3-0.5,0-1.2,0.1c-1.5,0.2-2.9,0.3-4.4,0.4c-12.5,1.1-24.7,10.3-24,24
				C306.5,405.3,316.6,418.4,330,417.3L330,417.3z"/>
		</g>
	</g>
	<g>
		<g>
			<path class="st0" d="M401.5,378.8c-0.1-0.2-0.2-0.4-0.3-0.6c0.8,6.2,1.6,12.3,2.4,18.5c-4.5,11.2-5.2,8.4-1.9,5.1
				c0.5-0.5,1.1-1.1,1.7-1.6c1.4-1.2,0.7-0.7-1.9,1.4c3.8-1.4,9-5.9,11.8-8.3c5.1-4.4,9.1-10.1,13.4-15.2c8.1-9.6,10.1-24.7,0-34
				c-8.9-8.2-25.4-10.3-34,0c-3.1,3.6-6.1,7.3-9.2,10.9c-0.6,0.7-1.2,1.5-1.9,2.2c-1.7,1.6-1.3,1.4,1.1-0.7
				c-0.4,1.1-4.5,2.9-5.6,3.6c-14.2,9.9-26.7,25.1-17.3,43c5.8,11.2,22.3,15.4,32.9,8.6C404.2,404.4,407.7,390.8,401.5,378.8
				L401.5,378.8z"/>
		</g>
	</g>
	<g>
		<g>
			<path class="st0" d="M370.8,427c12.6,0,24.6-11.1,24-24c-0.6-13-10.6-24-24-24c-12.6,0-24.6,11.1-24,24
				C347.4,416,357.3,427,370.8,427L370.8,427z"/>
		</g>
	</g>
	<g>
		<g>
			<path class="st0" d="M383.9,400.1c1.1-1,2.9-2.1,3.9-3.2c-1.6,2-2.9,2.1-0.1,0.3c0.6-0.4,2.8-2.2,3.7-2c-3,1.3-3.7,1.6-2,1
				c0.7-0.2,1.5-0.5,2.2-0.8c6.2-2.4,10.1-4.7,15.2-9.1c1-0.8,2-1.7,2.9-2.6c3.9-3.6-4.3,2.4,0.4-0.2c1.2-0.7,2.3-1.4,3.5-2.1
				c3.5-1.9,1.5,0-0.5,0c3.2,0,10.8-3.9,12.7-4.9c4.7-2.7,8.8-6.5,11.6-11.1c1.4-2.4,2.6-5.5,3.2-8.2c0.3-2.1,0.6-4.3,0.9-6.4
				c0.1-2.6,0.1-1.7-0.2,2.6c-2.1,3.5-4.1,7.1-6.2,10.6c-3.2,2.1-3.9,2.7-2.2,1.8c1.6-0.8,0.8-0.5-2.5,1c0.9-0.2,1.8-0.7,2.7-1
				c4-1.4,8-2.9,11.8-4.7c7.2-3.5,13.1-9.6,17-16.5c1.1-2,2-4.1,3.1-6.1c0.6-1,3.1-3.5,0.4-0.9c-0.9,1.5-2.2,2.7-3.8,3.5
				c-2.7,0.8-5.5,1.7-8.2,2.5c4.1,1.9,10.7-0.9,14.7-2.6c4.4-1.9,8.8-4.4,11.8-8.3c4.1-5.3,7-10,7-17c0-5.9-2.6-12.9-7-17
				c-8.6-7.9-25.8-10.6-34,0c-1.3,1.4-1.1,1.4,0.6,0c1.4-1.2,2.9-2,4.7-2.5c1.9-0.5,5.8-0.7,1.5-0.8c-5.5-0.1-11.1,1.7-15.9,4.5
				c-7,4.1-11.6,10.9-15.2,17.9c-0.5,1-1,2-1.6,3c-2,3.3-0.3,0.2,0.9-1.1c2.9-2,3.6-2.6,2.1-1.6c-0.6,0.4-1.2,0.7-1.8,1
				c0.8-1,5.3-2,1.1-0.5c-7.5,2.7-15.7,5.2-21.3,11.3c-3.8,4.1-9.2,13.3-7.7,19.4c-2.1-8.3,4.9-12,9.7-15.3c3.1-2.1-0.1-0.2-1.3,0.2
				c-7.8,2.8-14.6,6.3-21.1,11.3c-1.7,1.3-3.4,2.6-5,4c-1.2,1-5.2,3.8,0.1,0.3c-3.6,2.4,3.5-1,0.8-0.2c-2.7,0.8-5.3,2.1-7.9,3.2
				c-7,3.1-12.9,8.2-18.8,13.1c-9.7,8.1-9,25.7,0,34C360.2,409.5,373.6,408.7,383.9,400.1L383.9,400.1z"/>
		</g>
	</g>
	<g>
		<g>
			<path class="st0" d="M117.7,434.7c12.6,0,24.6-11.1,24-24c-0.6-13-10.6-24-24-24c-12.6,0-24.6,11.1-24,24
				C94.2,423.7,104.2,434.7,117.7,434.7L117.7,434.7z"/>
		</g>
	</g>
</g>
<g id="Layer_1">
	<path class="st1" d="M418.5,130l-21.5-4.7c-1.9-5.7-4.2-11.3-6.9-16.7L402,90.1c2.1-3.3,1.7-7.7-1.1-10.4l-33.5-33.5
		c-2.8-2.8-7.1-3.2-10.4-1.1L338.4,57c-5.4-2.7-11-5-16.7-6.9l-4.7-21.5c-0.8-3.8-4.2-6.6-8.2-6.6h-47.4c-3.9,0-7.3,2.7-8.2,6.6
		l-4.7,21.5C243,52,237.4,54.3,232,57l-18.5-11.9c-3.3-2.1-7.7-1.7-10.4,1.1l-33.5,33.5c-2.8,2.8-3.2,7.1-1.1,10.4l11.9,18.5
		c-2.7,5.4-5,11-6.9,16.7l-21.5,4.7c-3.8,0.8-6.6,4.2-6.6,8.2v47.4c0,3.9,2.7,7.3,6.6,8.2l21.5,4.7c1.9,5.7,4.2,11.3,6.9,16.7
		l-11.9,18.5c-2.1,3.3-1.7,7.7,1.1,10.4l33.5,33.5c2.8,2.8,7.1,3.2,10.4,1.1l18.5-11.9c5.4,2.7,11,5,16.7,6.9l4.7,21.5
		c0.8,3.8,4.2,6.6,8.2,6.6h47.4c3.9,0,7.3-2.7,8.2-6.6l4.7-21.5c5.7-1.9,11.3-4.2,16.7-6.9l18.5,11.9c3.3,2.1,7.7,1.7,10.4-1.1
		l33.5-33.5c2.8-2.8,3.2-7.1,1.1-10.4l-11.9-18.5c2.7-5.4,5-11,6.9-16.7l21.5-4.7c3.8-0.8,6.6-4.2,6.6-8.2v-47.4
		C425.1,134.3,422.4,130.9,418.5,130z M285.2,228.7c-36.9,0-66.9-30-66.9-66.9s30-66.9,66.9-66.9s66.9,30,66.9,66.9
		S322.1,228.7,285.2,228.7z"/>
	<path class="st2" d="M114.8,307.6h83l33.5,27.7l83-1.1c13.1-0.2,24.2,9.8,25.4,22.9v0c1.3,14.3-9.7,26.8-24.1,27.3l-90.2,0.5"/>
	<path class="st3" d="M343.5,358.6h21.9l74.3-59c14-11.1,34.2-9.8,46.6,3.2l0,0c5.7,5.9,5.5,15.3-0.3,21l-134.6,132
		c-4.1,4-9.6,6.3-15.4,6.3H235.7l-65.6-26.2l-56.1,0.4"/>
	<path class="st1" d="M102.4,450.3H19.3c-6,0-10.9-4.9-10.9-10.9V293.7c0-6,4.9-10.9,10.9-10.9h83.2c6,0,10.9,4.9,10.9,10.9v145.8
		C113.3,445.5,108.4,450.3,102.4,450.3z"/>
</g>
</svg>
