<?xml version="1.0" encoding="utf-8"?>
<!-- Generator: Adobe Illustrator 22.1.0, SVG Export Plug-In . SVG Version: 6.00 Build 0)  -->
<svg version="1.1" id="Layer_1" xmlns="http://www.w3.org/2000/svg" xmlns:xlink="http://www.w3.org/1999/xlink" x="0px" y="0px"
	 width="600px" height="400px" viewBox="0 0 600 400" style="enable-background:new 0 0 600 400;" xml:space="preserve">
<style type="text/css">
	.st0{fill:#FFFFFF;}
	.st1{opacity:0.4;fill:url(#XMLID_3_);enable-background:new    ;}
	.st2{opacity:0.4;fill:url(#XMLID_45_);enable-background:new    ;}
	.st3{opacity:0.4;fill:url(#XMLID_46_);enable-background:new    ;}
	.st4{opacity:0.4;fill:url(#XMLID_47_);enable-background:new    ;}
	.st5{opacity:0.4;fill:url(#XMLID_48_);enable-background:new    ;}
	.st6{opacity:0.4;fill:url(#XMLID_49_);enable-background:new    ;}
	.st7{opacity:0.4;fill:url(#XMLID_50_);enable-background:new    ;}
	.st8{opacity:0.4;fill:url(#XMLID_51_);enable-background:new    ;}
	.st9{opacity:0.4;fill:url(#XMLID_52_);enable-background:new    ;}
	.st10{opacity:0.4;fill:url(#XMLID_53_);enable-background:new    ;}
	.st11{opacity:0.4;fill:url(#XMLID_54_);enable-background:new    ;}
	.st12{opacity:0.4;fill:url(#XMLID_55_);enable-background:new    ;}
	.st13{opacity:0.4;fill:url(#XMLID_56_);enable-background:new    ;}
	.st14{opacity:0.4;fill:url(#XMLID_57_);enable-background:new    ;}
	.st15{opacity:0.4;fill:url(#XMLID_58_);enable-background:new    ;}
	.st16{opacity:0.4;fill:url(#XMLID_59_);enable-background:new    ;}
	.st17{opacity:0.4;fill:url(#XMLID_60_);enable-background:new    ;}
	.st18{opacity:0.4;fill:url(#XMLID_61_);enable-background:new    ;}
	.st19{opacity:0.4;fill:url(#XMLID_62_);enable-background:new    ;}
	.st20{opacity:0.4;fill:url(#XMLID_63_);enable-background:new    ;}
	.st21{opacity:0.4;fill:url(#XMLID_64_);enable-background:new    ;}
	.st22{opacity:0.4;fill:url(#XMLID_65_);enable-background:new    ;}
	.st23{opacity:0.4;fill:url(#XMLID_66_);enable-background:new    ;}
	.st24{opacity:0.4;fill:url(#XMLID_67_);enable-background:new    ;}
	.st25{opacity:0.4;fill:url(#XMLID_68_);enable-background:new    ;}
	.st26{opacity:0.4;fill:url(#XMLID_69_);enable-background:new    ;}
	.st27{opacity:0.1;fill:#55207A;enable-background:new    ;}
	.st28{fill:#DCAD00;}
	.st29{fill:#C69704;}
	.st30{fill:#FCDD00;}
	.st31{fill:#D8BD00;}
	.st32{fill:#F5E079;}
	.st33{fill:#E1BA41;}
	.st34{clip-path:url(#SVGID_2_);}
	.st35{fill:#C49372;}
	.st36{fill:#FCFCFC;}
	.st37{fill:#C7CE2E;}
	.st38{fill:#BD8D6E;}
	.st39{fill:#FFBF94;}
	.st40{fill:#55207A;}
</style>
<g id="Layer_3">
	<rect x="1" y="1" class="st0" width="600" height="396.8"/>
</g>
<g id="frame">
	<path id="XMLID_38_" class="st0" d="M377.8,53.3c47,12.6,95.7,20.7,140.3,5.8C490,50.3,462,35.9,435.1,19.4
		C425,13.2,414.9,6.8,404.9,0.1h-77.8c-15.4,10.6-31.5,19.4-48.1,26.5C312,33.4,344.9,44.4,377.8,53.3z"/>
	
		<linearGradient id="XMLID_3_" gradientUnits="userSpaceOnUse" x1="623.6346" y1="-1283.5475" x2="-78.4658" y2="-984.0979" gradientTransform="matrix(0.9328 0.3605 0.3141 -0.8129 339.6839 -1119.3767)">
		<stop  offset="0" style="stop-color:#7124FF"/>
		<stop  offset="1" style="stop-color:#9C2B00"/>
	</linearGradient>
	<path id="XMLID_37_" class="st1" d="M377.8,53.3c47,12.6,95.7,20.7,140.3,5.8C490,50.3,462,35.9,435.1,19.4
		C425,13.2,414.9,6.8,404.9,0.1h-77.8c-15.4,10.6-31.5,19.4-48.1,26.5C312,33.4,344.9,44.4,377.8,53.3z"/>
	<path id="XMLID_36_" class="st0" d="M117,53.1c-20.9,0-41.9-0.8-62.8-1.6c-3.6-0.2-7.3-0.3-10.9-0.4C34.6,62.8,26.6,76,20,90.7
		C12,108.1,6.1,127,1,146.6v53.5C27.7,134.9,68.8,83.9,117,53.1z"/>
	
		<linearGradient id="XMLID_45_" gradientUnits="userSpaceOnUse" x1="701.7892" y1="-1669.1689" x2="-349.7224" y2="-1220.6936" gradientTransform="matrix(0.9328 0.3605 0.3141 -0.8129 339.6839 -1119.3767)">
		<stop  offset="0" style="stop-color:#7124FF"/>
		<stop  offset="1" style="stop-color:#9C2B00"/>
	</linearGradient>
	<path id="XMLID_35_" class="st2" d="M117,53.1c-20.9,0-41.9-0.8-62.8-1.6c-3.6-0.2-7.3-0.3-10.9-0.4C34.6,62.8,26.6,76,20,90.7
		C12,108.1,6.1,127,1,146.6v53.5C27.7,134.9,68.8,83.9,117,53.1z"/>
	<path id="XMLID_34_" class="st0" d="M43.4,51.1c-14.2-0.5-28.2-1-42.4-1.6v97.1c5.1-19.7,11-38.6,19-55.9
		C26.6,76,34.6,62.8,43.4,51.1z"/>
	
		<linearGradient id="XMLID_46_" gradientUnits="userSpaceOnUse" x1="725.5368" y1="-1683.7412" x2="-343.2206" y2="-1227.9104" gradientTransform="matrix(0.9328 0.3605 0.3141 -0.8129 339.6839 -1119.3767)">
		<stop  offset="0" style="stop-color:#7124FF"/>
		<stop  offset="1" style="stop-color:#9C2B00"/>
	</linearGradient>
	<path id="XMLID_33_" class="st3" d="M43.4,51.1c-14.2-0.5-28.2-1-42.4-1.6v97.1c5.1-19.7,11-38.6,19-55.9
		C26.6,76,34.6,62.8,43.4,51.1z"/>
	
		<linearGradient id="XMLID_47_" gradientUnits="userSpaceOnUse" x1="725.5368" y1="-1683.7412" x2="-343.2206" y2="-1227.9104" gradientTransform="matrix(0.9328 0.3605 0.3141 -0.8129 339.6839 -1119.3767)">
		<stop  offset="0" style="stop-color:#7124FF"/>
		<stop  offset="1" style="stop-color:#9C2B00"/>
	</linearGradient>
	<path id="XMLID_32_" class="st4" d="M43.4,51.1c-14.2-0.5-28.2-1-42.4-1.6v97.1c5.1-19.7,11-38.6,19-55.9
		C26.6,76,34.6,62.8,43.4,51.1z"/>
	<path id="XMLID_31_" class="st0" d="M219.4,20.6c-35.8,0.9-70.6,12.4-102.3,32.5c52.7,0.2,105-4,154.6-23.5c2.5-1,4.9-2,7.4-3
		C259.1,22.6,239.2,20.1,219.4,20.6z"/>
	
		<linearGradient id="XMLID_48_" gradientUnits="userSpaceOnUse" x1="610.8508" y1="-1438.0653" x2="-241.5381" y2="-1074.5171" gradientTransform="matrix(0.9328 0.3605 0.3141 -0.8129 339.6839 -1119.3767)">
		<stop  offset="0" style="stop-color:#7124FF"/>
		<stop  offset="1" style="stop-color:#9C2B00"/>
	</linearGradient>
	<path id="XMLID_30_" class="st5" d="M219.4,20.6c-35.8,0.9-70.6,12.4-102.3,32.5c52.7,0.2,105-4,154.6-23.5c2.5-1,4.9-2,7.4-3
		C259.1,22.6,239.2,20.1,219.4,20.6z"/>
	<path id="XMLID_29_" class="st0" d="M54.3,51.5c20.9,0.8,41.9,1.5,62.8,1.6c31.8-20.2,66.5-31.6,102.3-32.5c19.9-0.5,39.7,2,59.6,6
		c16.6-7.1,32.6-16,48.1-26.5H101.3C79.8,12.5,60,29.3,43.4,51.1C47,51.2,50.7,51.4,54.3,51.5z"/>
	
		<linearGradient id="XMLID_49_" gradientUnits="userSpaceOnUse" x1="535.2267" y1="-1403.1149" x2="-89.7861" y2="-1136.5435" gradientTransform="matrix(0.9328 0.3605 0.3141 -0.8129 339.6839 -1119.3767)">
		<stop  offset="0" style="stop-color:#7124FF"/>
		<stop  offset="1" style="stop-color:#9C2B00"/>
	</linearGradient>
	<path id="XMLID_28_" class="st6" d="M54.3,51.5c20.9,0.8,41.9,1.5,62.8,1.6c31.8-20.2,66.5-31.6,102.3-32.5c19.9-0.5,39.7,2,59.6,6
		c16.6-7.1,32.6-16,48.1-26.5H101.3C79.8,12.5,60,29.3,43.4,51.1C47,51.2,50.7,51.4,54.3,51.5z"/>
	
		<linearGradient id="XMLID_50_" gradientUnits="userSpaceOnUse" x1="609.1302" y1="-1434.6351" x2="-251.9754" y2="-1067.3689" gradientTransform="matrix(0.9328 0.3605 0.3141 -0.8129 339.6839 -1119.3767)">
		<stop  offset="0" style="stop-color:#7124FF"/>
		<stop  offset="1" style="stop-color:#9C2B00"/>
	</linearGradient>
	<path id="XMLID_27_" class="st7" d="M54.3,51.5c20.9,0.8,41.9,1.5,62.8,1.6c31.8-20.2,66.5-31.6,102.3-32.5c19.9-0.5,39.7,2,59.6,6
		c16.6-7.1,32.6-16,48.1-26.5H101.3C79.8,12.5,60,29.3,43.4,51.1C47,51.2,50.7,51.4,54.3,51.5z"/>
	<path id="XMLID_26_" class="st0" d="M101.3,0.1H1v49.4c14.2,0.5,28.2,1,42.4,1.6C60,29.3,79.8,12.5,101.3,0.1z"/>
	
		<linearGradient id="XMLID_51_" gradientUnits="userSpaceOnUse" x1="509.5023" y1="-1500.2295" x2="-158.71" y2="-1215.2334" gradientTransform="matrix(0.9328 0.3605 0.3141 -0.8129 339.6839 -1119.3767)">
		<stop  offset="0" style="stop-color:#7124FF"/>
		<stop  offset="1" style="stop-color:#9C2B00"/>
	</linearGradient>
	<path id="XMLID_25_" class="st8" d="M101.3,0.1H1v49.4c14.2,0.5,28.2,1,42.4,1.6C60,29.3,79.8,12.5,101.3,0.1z"/>
	
		<linearGradient id="XMLID_52_" gradientUnits="userSpaceOnUse" x1="509.5023" y1="-1500.2295" x2="-158.71" y2="-1215.2334" gradientTransform="matrix(0.9328 0.3605 0.3141 -0.8129 339.6839 -1119.3767)">
		<stop  offset="0" style="stop-color:#7124FF"/>
		<stop  offset="1" style="stop-color:#9C2B00"/>
	</linearGradient>
	<path id="XMLID_24_" class="st9" d="M101.3,0.1H1v49.4c14.2,0.5,28.2,1,42.4,1.6C60,29.3,79.8,12.5,101.3,0.1z"/>
	
		<linearGradient id="XMLID_53_" gradientUnits="userSpaceOnUse" x1="588.5142" y1="-1533.9286" x2="-332.1116" y2="-1141.2766" gradientTransform="matrix(0.9328 0.3605 0.3141 -0.8129 339.6839 -1119.3767)">
		<stop  offset="0" style="stop-color:#7124FF"/>
		<stop  offset="1" style="stop-color:#9C2B00"/>
	</linearGradient>
	<path id="XMLID_23_" class="st10" d="M101.3,0.1H1v49.4c14.2,0.5,28.2,1,42.4,1.6C60,29.3,79.8,12.5,101.3,0.1z"/>
	<path id="XMLID_22_" class="st0" d="M518.1,59.2c22,7,44.2,10.5,66.2,9.2c5.3-0.3,10.6-1,16-1.9V0.1h-8.4
		c-15.6,24-35.9,42-57.5,52.5C529.1,55.2,523.6,57.3,518.1,59.2z"/>
	
		<linearGradient id="XMLID_54_" gradientUnits="userSpaceOnUse" x1="687.3946" y1="-1168.2256" x2="-3.2649" y2="-873.6558" gradientTransform="matrix(0.9328 0.3605 0.3141 -0.8129 339.6839 -1119.3767)">
		<stop  offset="0" style="stop-color:#7124FF"/>
		<stop  offset="1" style="stop-color:#9C2B00"/>
	</linearGradient>
	<path id="XMLID_21_" class="st11" d="M518.1,59.2c22,7,44.2,10.5,66.2,9.2c5.3-0.3,10.6-1,16-1.9V0.1h-8.4
		c-15.6,24-35.9,42-57.5,52.5C529.1,55.2,523.6,57.3,518.1,59.2z"/>
	<path id="XMLID_20_" class="st0" d="M518.1,59.2c5.5-1.8,10.9-4,16.3-6.6c21.7-10.4,41.9-28.5,57.5-52.5H404.9
		c10,6.7,20,13.1,30.1,19.3C462,35.9,490,50.3,518.1,59.2z"/>
	
		<linearGradient id="XMLID_55_" gradientUnits="userSpaceOnUse" x1="654.9044" y1="-1176.6693" x2="-39.6609" y2="-880.4335" gradientTransform="matrix(0.9328 0.3605 0.3141 -0.8129 339.6839 -1119.3767)">
		<stop  offset="0" style="stop-color:#7124FF"/>
		<stop  offset="1" style="stop-color:#9C2B00"/>
	</linearGradient>
	<path id="XMLID_19_" class="st12" d="M518.1,59.2c5.5-1.8,10.9-4,16.3-6.6c21.7-10.4,41.9-28.5,57.5-52.5H404.9
		c10,6.7,20,13.1,30.1,19.3C462,35.9,490,50.3,518.1,59.2z"/>
	
		<linearGradient id="XMLID_56_" gradientUnits="userSpaceOnUse" x1="668.3076" y1="-1182.3859" x2="-26.2575" y2="-886.1501" gradientTransform="matrix(0.9328 0.3605 0.3141 -0.8129 339.6839 -1119.3767)">
		<stop  offset="0" style="stop-color:#7124FF"/>
		<stop  offset="1" style="stop-color:#9C2B00"/>
	</linearGradient>
	<path id="XMLID_1_" class="st13" d="M518.1,59.2c5.5-1.8,10.9-4,16.3-6.6c21.7-10.4,41.9-28.5,57.5-52.5H404.9
		c10,6.7,20,13.1,30.1,19.3C462,35.9,490,50.3,518.1,59.2z"/>
	<path id="XMLID_44_" class="st0" d="M223.5,346.9c-47-12.6-95.7-20.8-140.3-5.9c28.2,8.9,56.1,23.3,83.1,39.8
		c10.1,6.1,20.2,12.6,30.1,19.3h77.8c15.4-10.5,31.5-19.4,48.1-26.5C289.4,366.9,256.4,355.8,223.5,346.9z"/>
	
		<linearGradient id="XMLID_57_" gradientUnits="userSpaceOnUse" x1="944.9655" y1="-1598.9591" x2="242.8648" y2="-1299.5096" gradientTransform="matrix(-0.9328 -0.3605 -0.3141 0.8129 462.3161 1891.8646)">
		<stop  offset="0" style="stop-color:#7124FF"/>
		<stop  offset="1" style="stop-color:#9C2B00"/>
	</linearGradient>
	<path id="XMLID_43_" class="st14" d="M223.5,346.9c-47-12.6-95.7-20.8-140.3-5.9c28.2,8.9,56.1,23.3,83.1,39.8
		c10.1,6.1,20.2,12.6,30.1,19.3h77.8c15.4-10.5,31.5-19.4,48.1-26.5C289.4,366.9,256.4,355.8,223.5,346.9z"/>
	<path id="XMLID_42_" class="st0" d="M484.3,347.1c20.9,0,41.9,0.9,62.8,1.6c3.6,0.1,7.3,0.3,10.9,0.4c8.8-11.7,16.8-24.9,23.4-39.6
		c7.9-17.4,13.9-36.3,19-55.9v-53.5C573.7,265.4,532.5,316.4,484.3,347.1z"/>
	
		<linearGradient id="XMLID_58_" gradientUnits="userSpaceOnUse" x1="1023.1202" y1="-1984.5806" x2="-28.3913" y2="-1536.1052" gradientTransform="matrix(-0.9328 -0.3605 -0.3141 0.8129 462.3161 1891.8646)">
		<stop  offset="0" style="stop-color:#7124FF"/>
		<stop  offset="1" style="stop-color:#9C2B00"/>
	</linearGradient>
	<path id="XMLID_41_" class="st15" d="M484.3,347.1c20.9,0,41.9,0.9,62.8,1.6c3.6,0.1,7.3,0.3,10.9,0.4
		c8.8-11.7,16.8-24.9,23.4-39.6c7.9-17.4,13.9-36.3,19-55.9v-53.5C573.7,265.4,532.5,316.4,484.3,347.1z"/>
	<path id="XMLID_40_" class="st0" d="M557.9,349.1c14.2,0.5,28.2,1,42.4,1.6v-97.1c-5.1,19.6-11,38.5-19,55.9
		C574.7,324.3,566.8,337.4,557.9,349.1z"/>
	
		<linearGradient id="XMLID_59_" gradientUnits="userSpaceOnUse" x1="1046.8678" y1="-1999.1528" x2="-21.8897" y2="-1543.322" gradientTransform="matrix(-0.9328 -0.3605 -0.3141 0.8129 462.3161 1891.8646)">
		<stop  offset="0" style="stop-color:#7124FF"/>
		<stop  offset="1" style="stop-color:#9C2B00"/>
	</linearGradient>
	<path id="XMLID_39_" class="st16" d="M557.9,349.1c14.2,0.5,28.2,1,42.4,1.6v-97.1c-5.1,19.6-11,38.5-19,55.9
		C574.7,324.3,566.8,337.4,557.9,349.1z"/>
	
		<linearGradient id="XMLID_60_" gradientUnits="userSpaceOnUse" x1="1046.8678" y1="-1999.1528" x2="-21.8897" y2="-1543.322" gradientTransform="matrix(-0.9328 -0.3605 -0.3141 0.8129 462.3161 1891.8646)">
		<stop  offset="0" style="stop-color:#7124FF"/>
		<stop  offset="1" style="stop-color:#9C2B00"/>
	</linearGradient>
	<path id="XMLID_18_" class="st17" d="M557.9,349.1c14.2,0.5,28.2,1,42.4,1.6v-97.1c-5.1,19.6-11,38.5-19,55.9
		C574.7,324.3,566.8,337.4,557.9,349.1z"/>
	<path id="XMLID_17_" class="st0" d="M382,379.7c35.8-0.9,70.6-12.4,102.3-32.5c-52.7-0.2-105,4-154.6,23.5c-2.5,1-4.9,2-7.4,3
		C342.2,377.7,362.1,380.2,382,379.7z"/>
	
		<linearGradient id="XMLID_61_" gradientUnits="userSpaceOnUse" x1="932.1817" y1="-1753.4771" x2="79.7927" y2="-1389.9286" gradientTransform="matrix(-0.9328 -0.3605 -0.3141 0.8129 462.3161 1891.8646)">
		<stop  offset="0" style="stop-color:#7124FF"/>
		<stop  offset="1" style="stop-color:#9C2B00"/>
	</linearGradient>
	<path id="XMLID_16_" class="st18" d="M382,379.7c35.8-0.9,70.6-12.4,102.3-32.5c-52.7-0.2-105,4-154.6,23.5c-2.5,1-4.9,2-7.4,3
		C342.2,377.7,362.1,380.2,382,379.7z"/>
	<path id="XMLID_15_" class="st0" d="M547.1,348.7c-20.9-0.8-41.9-1.5-62.8-1.6c-31.8,20.2-66.5,31.6-102.3,32.5
		c-19.9,0.5-39.7-2-59.6-6c-16.6,7.1-32.6,16-48.1,26.5H500c21.5-12.4,41.4-29.1,57.9-51C554.3,349,550.7,348.9,547.1,348.7z"/>
	
		<linearGradient id="XMLID_62_" gradientUnits="userSpaceOnUse" x1="856.5577" y1="-1718.5265" x2="231.5448" y2="-1451.9551" gradientTransform="matrix(-0.9328 -0.3605 -0.3141 0.8129 462.3161 1891.8646)">
		<stop  offset="0" style="stop-color:#7124FF"/>
		<stop  offset="1" style="stop-color:#9C2B00"/>
	</linearGradient>
	<path id="XMLID_14_" class="st19" d="M547.1,348.7c-20.9-0.8-41.9-1.5-62.8-1.6c-31.8,20.2-66.5,31.6-102.3,32.5
		c-19.9,0.5-39.7-2-59.6-6c-16.6,7.1-32.6,16-48.1,26.5H500c21.5-12.4,41.4-29.1,57.9-51C554.3,349,550.7,348.9,547.1,348.7z"/>
	
		<linearGradient id="XMLID_63_" gradientUnits="userSpaceOnUse" x1="930.4612" y1="-1750.0468" x2="69.3555" y2="-1382.7805" gradientTransform="matrix(-0.9328 -0.3605 -0.3141 0.8129 462.3161 1891.8646)">
		<stop  offset="0" style="stop-color:#7124FF"/>
		<stop  offset="1" style="stop-color:#9C2B00"/>
	</linearGradient>
	<path id="XMLID_13_" class="st20" d="M547.1,348.7c-20.9-0.8-41.9-1.5-62.8-1.6c-31.8,20.2-66.5,31.6-102.3,32.5
		c-19.9,0.5-39.7-2-59.6-6c-16.6,7.1-32.6,16-48.1,26.5H500c21.5-12.4,41.4-29.1,57.9-51C554.3,349,550.7,348.9,547.1,348.7z"/>
	<path id="XMLID_12_" class="st0" d="M500,400.1h100.3v-49.4c-14.2-0.5-28.2-1-42.4-1.6C541.4,371,521.5,387.8,500,400.1z"/>
	
		<linearGradient id="XMLID_64_" gradientUnits="userSpaceOnUse" x1="830.8336" y1="-1815.6412" x2="162.6206" y2="-1530.645" gradientTransform="matrix(-0.9328 -0.3605 -0.3141 0.8129 462.3161 1891.8646)">
		<stop  offset="0" style="stop-color:#7124FF"/>
		<stop  offset="1" style="stop-color:#9C2B00"/>
	</linearGradient>
	<path id="XMLID_11_" class="st21" d="M500,400.1h100.3v-49.4c-14.2-0.5-28.2-1-42.4-1.6C541.4,371,521.5,387.8,500,400.1z"/>
	
		<linearGradient id="XMLID_65_" gradientUnits="userSpaceOnUse" x1="830.8336" y1="-1815.6412" x2="162.6206" y2="-1530.645" gradientTransform="matrix(-0.9328 -0.3605 -0.3141 0.8129 462.3161 1891.8646)">
		<stop  offset="0" style="stop-color:#7124FF"/>
		<stop  offset="1" style="stop-color:#9C2B00"/>
	</linearGradient>
	<path id="XMLID_10_" class="st22" d="M500,400.1h100.3v-49.4c-14.2-0.5-28.2-1-42.4-1.6C541.4,371,521.5,387.8,500,400.1z"/>
	
		<linearGradient id="XMLID_66_" gradientUnits="userSpaceOnUse" x1="909.8455" y1="-1849.3402" x2="-10.781" y2="-1456.6882" gradientTransform="matrix(-0.9328 -0.3605 -0.3141 0.8129 462.3161 1891.8646)">
		<stop  offset="0" style="stop-color:#7124FF"/>
		<stop  offset="1" style="stop-color:#9C2B00"/>
	</linearGradient>
	<path id="XMLID_9_" class="st23" d="M500,400.1h100.3v-49.4c-14.2-0.5-28.2-1-42.4-1.6C541.4,371,521.5,387.8,500,400.1z"/>
	<path id="XMLID_8_" class="st0" d="M83.2,341.1c-22-7-44.2-10.5-66.2-9.2c-5.3,0.4-10.6,1-16,2v66.3h8.4c15.6-24,35.9-42,57.5-52.5
		C72.2,345.1,77.7,342.9,83.2,341.1z"/>
	
		<linearGradient id="XMLID_67_" gradientUnits="userSpaceOnUse" x1="1008.7255" y1="-1483.6373" x2="318.0664" y2="-1189.0674" gradientTransform="matrix(-0.9328 -0.3605 -0.3141 0.8129 462.3161 1891.8646)">
		<stop  offset="0" style="stop-color:#7124FF"/>
		<stop  offset="1" style="stop-color:#9C2B00"/>
	</linearGradient>
	<path id="XMLID_7_" class="st24" d="M83.2,341.1c-22-7-44.2-10.5-66.2-9.2c-5.3,0.4-10.6,1-16,2v66.3h8.4
		c15.6-24,35.9-42,57.5-52.5C72.2,345.1,77.7,342.9,83.2,341.1z"/>
	<path id="XMLID_6_" class="st0" d="M83.2,341.1c-5.5,1.9-10.9,4-16.3,6.6C45.3,358.1,25,376.1,9.4,400.1h187
		c-10-6.6-20-13.1-30.1-19.3C139.3,364.4,111.4,350,83.2,341.1z"/>
	
		<linearGradient id="XMLID_68_" gradientUnits="userSpaceOnUse" x1="976.2448" y1="-1492.0546" x2="281.7059" y2="-1195.8302" gradientTransform="matrix(-0.9328 -0.3605 -0.3141 0.8129 462.3161 1891.8646)">
		<stop  offset="0" style="stop-color:#7124FF"/>
		<stop  offset="1" style="stop-color:#9C2B00"/>
	</linearGradient>
	<path id="XMLID_5_" class="st25" d="M83.2,341.1c-5.5,1.9-10.9,4-16.3,6.6C45.3,358.1,25,376.1,9.4,400.1h187
		c-10-6.6-20-13.1-30.1-19.3C139.3,364.4,111.4,350,83.2,341.1z"/>
	
		<linearGradient id="XMLID_69_" gradientUnits="userSpaceOnUse" x1="989.6475" y1="-1497.771" x2="295.1088" y2="-1201.5464" gradientTransform="matrix(-0.9328 -0.3605 -0.3141 0.8129 462.3161 1891.8646)">
		<stop  offset="0" style="stop-color:#7124FF"/>
		<stop  offset="1" style="stop-color:#9C2B00"/>
	</linearGradient>
	<path id="XMLID_4_" class="st26" d="M83.2,341.1c-5.5,1.9-10.9,4-16.3,6.6C45.3,358.1,25,376.1,9.4,400.1h187
		c-10-6.6-20-13.1-30.1-19.3C139.3,364.4,111.4,350,83.2,341.1z"/>
</g>
<g id="Layer_2_1_">
	
		<ellipse transform="matrix(0.7071 -0.7071 0.7071 0.7071 -20.7195 257.1105)" class="st27" cx="300" cy="153.6" rx="78.5" ry="78.5"/>
	<g>
		<g>
			<polygon class="st28" points="330.5,139 330.5,110.4 282.1,110.3 282.1,139.5 			"/>
			<g>
				<path class="st29" d="M306.3,122.8c-13.4,0-24.2,5.2-24.2,11.6c0,6.4,10.8,11.6,24.2,11.6s24.2-5.2,24.2-11.6
					C330.5,128,319.7,122.8,306.3,122.8z"/>
				<path class="st30" d="M306.3,124.7c-11.1,0-20.1,3.9-20.1,8.6s9,8.6,20.1,8.6c11.1,0,20.1-3.9,20.1-8.6
					C326.4,128.6,317.4,124.7,306.3,124.7z"/>
				<path class="st31" d="M306.3,142.2V142v-0.1l0,0c0.3,0,0.6,0,0.9,0v0.3C306.9,142.2,306.6,142.2,306.3,142.2z M305.3,142.1
					c-0.3,0-0.6,0-1,0v-0.3c0.3,0,0.6,0,0.9,0L305.3,142.1z M308.2,142.1v-0.3c0.3,0,0.6,0,0.9,0v0.3
					C308.9,142.1,308.6,142.1,308.2,142.1z M303.4,142.1c-0.3,0-0.6,0-1,0l0-0.3c0.3,0,0.6,0,0.9,0V142.1z M310.1,142v-0.3
					c0.3,0,0.6,0,0.9-0.1l0,0.3C310.8,141.9,310.5,142,310.1,142z M301.4,141.9c-0.3,0-0.6,0-1-0.1l0-0.3c0.3,0,0.6,0.1,0.9,0.1
					V141.9z M312.1,141.8l0-0.3c0.3,0,0.6-0.1,0.9-0.1l0,0.3C312.7,141.7,312.4,141.7,312.1,141.8z M299.5,141.6
					c-0.3,0-0.6-0.1-0.9-0.1l0-0.3c0.3,0,0.6,0.1,0.9,0.1L299.5,141.6z M314,141.5l0-0.3c0.3,0,0.6-0.1,0.9-0.2l0,0.3
					C314.6,141.4,314.4,141.4,314,141.5z M297.6,141.3c-0.3,0-0.6-0.1-0.9-0.2l0-0.3c0.3,0,0.6,0.1,0.9,0.2L297.6,141.3z
					 M315.9,141.1l0-0.3c0.3-0.1,0.6-0.1,0.9-0.2l0.1,0.3C316.6,140.9,316.2,141,315.9,141.1z M295.7,140.8
					c-0.3-0.1-0.6-0.2-0.9-0.2l0.1-0.3c0.3,0.1,0.6,0.2,0.9,0.2L295.7,140.8z M317.8,140.6l-0.1-0.3c0.3-0.1,0.6-0.2,0.9-0.3
					l0.1,0.3C318.4,140.4,318.1,140.5,317.8,140.6z M293.8,140.3c-0.3-0.1-0.6-0.2-0.9-0.3l0.1-0.3c0.3,0.1,0.6,0.2,0.9,0.3
					L293.8,140.3z M319.7,140l-0.1-0.3c0.3-0.1,0.6-0.2,0.9-0.3l0.1,0.3C320.3,139.8,320,139.8,319.7,140z M292,139.6
					c-0.3-0.1-0.6-0.2-0.9-0.4l0.1-0.3c0.3,0.1,0.6,0.3,0.9,0.4L292,139.6z M321.5,139.2l-0.1-0.3c0.3-0.1,0.6-0.3,0.8-0.4l0.1,0.3
					C322.1,138.9,321.8,139.1,321.5,139.2z M290.2,138.7c-0.3-0.1-0.6-0.3-0.8-0.5l0.1-0.3c0.2,0.1,0.5,0.3,0.8,0.5L290.2,138.7z
					 M323.2,138.2l-0.1-0.3c0.3-0.2,0.5-0.3,0.8-0.5l0.2,0.2C323.8,137.9,323.5,138.1,323.2,138.2z M288.5,137.6
					c-0.3-0.2-0.5-0.4-0.7-0.6l0.2-0.2c0.2,0.2,0.4,0.4,0.7,0.6L288.5,137.6z M324.8,137l-0.2-0.2c0.2-0.2,0.4-0.5,0.6-0.7l0.2,0.2
					C325.3,136.5,325.1,136.8,324.8,137z M287.1,136.2c-0.2-0.3-0.4-0.5-0.5-0.8l0.3-0.1c0.1,0.2,0.3,0.5,0.5,0.8L287.1,136.2z
					 M326,135.4l-0.3-0.1c0.1-0.3,0.3-0.6,0.3-0.9l0.3,0.1C326.3,134.7,326.2,135.1,326,135.4z M286.1,134.4c-0.1-0.3-0.1-0.7-0.1-1
					h0.3l0,0c0,0.3,0,0.6,0.1,0.9L286.1,134.4z M326.6,133.4h-0.3h0.1l-0.1,0c0-0.3,0-0.6-0.1-0.9l0.3-0.1
					C326.5,132.7,326.6,133,326.6,133.4L326.6,133.4z M286.5,132.4l-0.3-0.1c0.1-0.3,0.2-0.6,0.4-1l0.3,0.1
					C286.7,131.8,286.5,132.1,286.5,132.4z M325.8,131.5c-0.1-0.3-0.3-0.5-0.5-0.8l0.2-0.2c0.2,0.3,0.4,0.6,0.5,0.8L325.8,131.5z
					 M287.4,130.7l-0.2-0.2c0.2-0.2,0.4-0.5,0.7-0.7l0.2,0.2C287.7,130.2,287.6,130.4,287.4,130.7z M324.6,130
					c-0.2-0.2-0.4-0.4-0.7-0.6l0.2-0.2c0.3,0.2,0.5,0.4,0.7,0.6L324.6,130z M288.7,129.3l-0.2-0.3c0.2-0.2,0.5-0.4,0.8-0.6l0.1,0.3
					C289.2,129,289,129.1,288.7,129.3z M323.1,128.8c-0.2-0.1-0.5-0.3-0.8-0.5l0.1-0.3c0.3,0.1,0.6,0.3,0.8,0.5L323.1,128.8z
					 M290.4,128.3l-0.1-0.3c0.3-0.1,0.6-0.3,0.9-0.4l0.1,0.3C290.9,128,290.6,128.1,290.4,128.3z M321.4,127.9
					c-0.3-0.1-0.6-0.3-0.9-0.4l0.1-0.3c0.3,0.1,0.6,0.2,0.9,0.4L321.4,127.9z M292.1,127.4l-0.1-0.3c0.3-0.1,0.6-0.2,0.9-0.3
					l0.1,0.3C292.7,127.2,292.4,127.3,292.1,127.4z M319.6,127.1c-0.3-0.1-0.6-0.2-0.9-0.3l0.1-0.3c0.3,0.1,0.6,0.2,0.9,0.3
					L319.6,127.1z M293.9,126.7l-0.1-0.3c0.3-0.1,0.6-0.2,0.9-0.3l0.1,0.3C294.5,126.5,294.2,126.6,293.9,126.7z M317.8,126.5
					c-0.3-0.1-0.6-0.2-0.9-0.2l0.1-0.3c0.3,0.1,0.6,0.2,0.9,0.2L317.8,126.5z M295.8,126.2l-0.1-0.3c0.3-0.1,0.6-0.1,0.9-0.2l0,0.3
					C296.4,126,296.1,126.1,295.8,126.2z M315.9,126c-0.3,0-0.6-0.1-0.9-0.2l0-0.3c0.3,0,0.6,0.1,0.9,0.2L315.9,126z M297.7,125.7
					l0-0.3c0.3,0,0.6-0.1,0.9-0.2l0,0.3C298.3,125.6,298,125.7,297.7,125.7z M314,125.6c-0.3,0-0.6-0.1-0.9-0.1l0-0.3
					c0.3,0,0.6,0.1,0.9,0.1L314,125.6z M299.5,125.4l0-0.3c0.3,0,0.6-0.1,0.9-0.1l0,0.3C300.2,125.3,299.9,125.3,299.5,125.4z
					 M312.1,125.3c-0.3,0-0.6-0.1-0.9-0.1l0-0.3c0.3,0,0.6,0,1,0.1L312.1,125.3z M301.5,125.1l0-0.3c0.3,0,0.6,0,1-0.1l0,0.3
					C302.1,125.1,301.8,125.1,301.5,125.1z M310.2,125.1c-0.3,0-0.6,0-0.9,0v-0.3c0.3,0,0.6,0,1,0L310.2,125.1z M303.4,125v-0.3
					c0.3,0,0.6,0,1,0v0.3C304,124.9,303.7,125,303.4,125z M308.3,124.9c-0.3,0-0.6,0-0.9,0v-0.3c0.3,0,0.6,0,1,0L308.3,124.9z
					 M305.3,124.9v-0.3c0.3,0,0.6,0,1,0h0v0.3h0C306,124.9,305.6,124.9,305.3,124.9z"/>
			</g>
			<path class="st29" d="M306.3,114.6c-13.4,0-24.2,5.2-24.2,11.6c0,6.4,10.8,11.6,24.2,11.6s24.2-3.9,24.2-11.6
				C330.5,119.8,319.7,114.6,306.3,114.6z"/>
			<path class="st30" d="M306.3,116.3c-11.1,0-20.1,3.9-20.1,8.6c0,4.8,9,8.6,20.1,8.6c11.1,0,20.1-3.9,20.1-8.6
				C326.4,120.2,317.4,116.3,306.3,116.3z"/>
			<path class="st31" d="M306.3,133.8v-0.1v-0.1l0,0c0.3,0,0.6,0,0.9,0v0.3C306.9,133.8,306.6,133.8,306.3,133.8z M305.3,133.7
				c-0.3,0-0.6,0-1,0v-0.3c0.3,0,0.6,0,0.9,0L305.3,133.7z M308.2,133.7v-0.3c0.3,0,0.6,0,0.9,0v0.3
				C308.9,133.7,308.6,133.7,308.2,133.7z M303.4,133.7c-0.3,0-0.6,0-1,0l0-0.3c0.3,0,0.6,0,0.9,0V133.7z M310.1,133.6v-0.3
				c0.3,0,0.6,0,0.9-0.1l0,0.3C310.8,133.5,310.5,133.6,310.1,133.6z M301.4,133.5c-0.3,0-0.6,0-1-0.1l0-0.3c0.3,0,0.6,0.1,0.9,0.1
				V133.5z M312.1,133.4l0-0.3c0.3,0,0.6-0.1,0.9-0.1l0,0.3C312.7,133.3,312.4,133.3,312.1,133.4z M299.5,133.2
				c-0.3,0-0.6-0.1-0.9-0.1l0-0.3c0.3,0,0.6,0.1,0.9,0.1L299.5,133.2z M314,133.1l0-0.3c0.3,0,0.6-0.1,0.9-0.2l0,0.3
				C314.6,133,314.4,133,314,133.1z M297.6,132.9c-0.3,0-0.6-0.1-0.9-0.2l0-0.3c0.3,0,0.6,0.1,0.9,0.2L297.6,132.9z M315.9,132.7
				l0-0.3c0.3-0.1,0.6-0.1,0.9-0.2l0.1,0.3C316.6,132.5,316.2,132.6,315.9,132.7z M295.7,132.4c-0.3-0.1-0.6-0.2-0.9-0.2l0.1-0.3
				c0.3,0.1,0.6,0.2,0.9,0.2L295.7,132.4z M317.8,132.2l-0.1-0.3c0.3-0.1,0.6-0.2,0.9-0.3l0.1,0.3
				C318.4,132,318.1,132.1,317.8,132.2z M293.8,131.9c-0.3-0.1-0.6-0.2-0.9-0.3l0.1-0.3c0.3,0.1,0.6,0.2,0.9,0.3L293.8,131.9z
				 M319.7,131.6l-0.1-0.3c0.3-0.1,0.6-0.2,0.9-0.3l0.1,0.3C320.3,131.3,320,131.4,319.7,131.6z M292,131.2
				c-0.3-0.1-0.6-0.2-0.9-0.4l0.1-0.3c0.3,0.1,0.6,0.3,0.9,0.4L292,131.2z M321.5,130.8l-0.1-0.3c0.3-0.1,0.6-0.3,0.8-0.4l0.1,0.3
				C322.1,130.5,321.8,130.6,321.5,130.8z M290.2,130.3c-0.3-0.1-0.6-0.3-0.8-0.5l0.1-0.3c0.2,0.1,0.5,0.3,0.8,0.5L290.2,130.3z
				 M323.2,129.8l-0.1-0.3c0.3-0.2,0.5-0.3,0.8-0.5l0.2,0.3C323.8,129.4,323.5,129.6,323.2,129.8z M288.5,129.2
				c-0.3-0.2-0.5-0.4-0.7-0.6l0.2-0.2c0.2,0.2,0.4,0.4,0.7,0.6L288.5,129.2z M324.8,128.6l-0.2-0.2c0.2-0.2,0.4-0.5,0.6-0.7l0.2,0.2
				C325.3,128.1,325.1,128.4,324.8,128.6z M287.1,127.8c-0.2-0.3-0.4-0.6-0.5-0.8l0.3-0.1c0.1,0.2,0.3,0.5,0.5,0.8L287.1,127.8z
				 M326,127l-0.3-0.1c0.1-0.3,0.3-0.6,0.3-0.9l0.3,0.1C326.3,126.3,326.2,126.7,326,127z M286.1,126c-0.1-0.3-0.1-0.7-0.1-1h0.3
				l0,0c0,0.3,0,0.6,0.1,0.9L286.1,126z M326.6,125h-0.3h0.1l-0.1,0c0-0.3,0-0.6-0.1-0.9l0.3-0.1C326.5,124.2,326.6,124.6,326.6,125
				L326.6,125z M286.5,124l-0.3-0.1c0.1-0.3,0.2-0.6,0.4-1l0.3,0.1C286.7,123.4,286.5,123.7,286.5,124z M325.8,123.1
				c-0.1-0.2-0.3-0.5-0.5-0.8l0.2-0.2c0.2,0.3,0.4,0.6,0.5,0.8L325.8,123.1z M287.4,122.3l-0.2-0.2c0.2-0.2,0.4-0.5,0.7-0.7l0.2,0.2
				C287.7,121.8,287.6,122,287.4,122.3z M324.6,121.6c-0.2-0.2-0.4-0.4-0.7-0.6l0.2-0.3c0.3,0.2,0.5,0.4,0.7,0.6L324.6,121.6z
				 M288.7,120.9l-0.2-0.3c0.2-0.2,0.5-0.4,0.8-0.6l0.1,0.3C289.2,120.5,289,120.7,288.7,120.9z M323.1,120.4
				c-0.2-0.1-0.5-0.3-0.8-0.5l0.1-0.3c0.3,0.1,0.6,0.3,0.8,0.5L323.1,120.4z M290.4,119.9l-0.1-0.3c0.3-0.1,0.6-0.3,0.9-0.4l0.1,0.3
				C290.9,119.5,290.6,119.7,290.4,119.9z M321.4,119.4c-0.3-0.1-0.6-0.3-0.9-0.4l0.1-0.3c0.3,0.1,0.6,0.2,0.9,0.4L321.4,119.4z
				 M292.1,119l-0.1-0.3c0.3-0.1,0.6-0.2,0.9-0.3l0.1,0.3C292.7,118.7,292.4,118.9,292.1,119z M319.6,118.6
				c-0.3-0.1-0.6-0.2-0.9-0.3l0.1-0.3c0.3,0.1,0.6,0.2,0.9,0.3L319.6,118.6z M293.9,118.3l-0.1-0.3c0.3-0.1,0.6-0.2,0.9-0.3l0.1,0.3
				C294.5,118.1,294.2,118.2,293.9,118.3z M317.8,118.1c-0.3-0.1-0.6-0.2-0.9-0.2l0.1-0.3c0.3,0.1,0.6,0.2,0.9,0.2L317.8,118.1z
				 M295.8,117.8l-0.1-0.3c0.3-0.1,0.6-0.1,0.9-0.2l0,0.3C296.4,117.6,296.1,117.7,295.8,117.8z M315.9,117.6
				c-0.3,0-0.6-0.1-0.9-0.2l0-0.3c0.3,0,0.6,0.1,0.9,0.2L315.9,117.6z M297.7,117.3l0-0.3c0.3,0,0.6-0.1,0.9-0.2l0,0.3
				C298.3,117.2,298,117.3,297.7,117.3z M314,117.2c-0.3,0-0.6-0.1-0.9-0.1l0-0.3c0.3,0,0.6,0.1,0.9,0.1L314,117.2z M299.5,117
				l0-0.3c0.3,0,0.6-0.1,0.9-0.1l0,0.3C300.2,116.9,299.9,117,299.5,117z M312.1,116.9c-0.3,0-0.6-0.1-0.9-0.1l0-0.3
				c0.3,0,0.6,0,1,0.1L312.1,116.9z M301.5,116.7l0-0.3c0.3,0,0.6,0,1-0.1l0,0.3C302.1,116.7,301.8,116.7,301.5,116.7z M310.2,116.7
				c-0.3,0-0.6,0-0.9,0v-0.3c0.3,0,0.6,0,1,0L310.2,116.7z M303.4,116.6v-0.3c0.3,0,0.6,0,1,0v0.3
				C304,116.5,303.7,116.6,303.4,116.6z M308.3,116.5c-0.3,0-0.6,0-0.9,0v-0.3c0.3,0,0.6,0,1,0L308.3,116.5z M305.3,116.5v-0.3
				c0.3,0,0.6,0,1,0h0v0.3h0C306,116.5,305.6,116.5,305.3,116.5z"/>
			<g>
				<path class="st29" d="M306.3,108.2c-13.4,0-24.2,5.2-24.2,11.6s10.8,11.6,24.2,11.6s24.2-5.2,24.2-11.6S319.7,108.2,306.3,108.2
					z"/>
				<path class="st30" d="M306.3,110.2c-11.1,0-20.1,3.9-20.1,8.6c0,4.8,9,8.6,20.1,8.6c11.1,0,20.1-3.9,20.1-8.6
					C326.4,114,317.4,110.2,306.3,110.2z"/>
				<path class="st31" d="M306.3,127.6v-0.1v-0.1l0,0c0.3,0,0.6,0,0.9,0v0.3C306.9,127.6,306.6,127.6,306.3,127.6z M305.3,127.6
					c-0.3,0-0.6,0-1,0v-0.3c0.3,0,0.6,0,0.9,0L305.3,127.6z M308.2,127.6v-0.3c0.3,0,0.6,0,0.9,0v0.3
					C308.9,127.5,308.6,127.6,308.2,127.6z M303.4,127.5c-0.3,0-0.6,0-1,0l0-0.3c0.3,0,0.6,0,0.9,0V127.5z M310.1,127.5v-0.3
					c0.3,0,0.6,0,0.9-0.1l0,0.3C310.8,127.4,310.5,127.4,310.1,127.5z M301.4,127.4c-0.3,0-0.6,0-1-0.1l0-0.3c0.3,0,0.6,0.1,0.9,0.1
					V127.4z M312.1,127.2l0-0.3c0.3,0,0.6-0.1,0.9-0.1l0,0.3C312.7,127.2,312.4,127.2,312.1,127.2z M299.5,127.1
					c-0.3,0-0.6-0.1-0.9-0.1l0-0.3c0.3,0,0.6,0.1,0.9,0.1L299.5,127.1z M314,127l0-0.3c0.3,0,0.6-0.1,0.9-0.2l0,0.3
					C314.6,126.8,314.4,126.9,314,127z M297.6,126.8c-0.3,0-0.6-0.1-0.9-0.2l0-0.3c0.3,0,0.6,0.1,0.9,0.2L297.6,126.8z M315.9,126.6
					l0-0.3c0.3-0.1,0.6-0.1,0.9-0.2l0.1,0.3C316.6,126.4,316.2,126.5,315.9,126.6z M295.7,126.3c-0.3-0.1-0.6-0.1-0.9-0.2l0.1-0.3
					c0.3,0.1,0.6,0.2,0.9,0.2L295.7,126.3z M317.8,126.1l-0.1-0.3c0.3-0.1,0.6-0.2,0.9-0.3l0.1,0.3
					C318.4,125.9,318.1,126,317.8,126.1z M293.8,125.7c-0.3-0.1-0.6-0.2-0.9-0.3l0.1-0.3c0.3,0.1,0.6,0.2,0.9,0.3L293.8,125.7z
					 M319.7,125.4l-0.1-0.3c0.3-0.1,0.6-0.2,0.9-0.3l0.1,0.3C320.3,125.2,320,125.3,319.7,125.4z M292,125c-0.3-0.1-0.6-0.2-0.9-0.4
					l0.1-0.3c0.3,0.1,0.6,0.3,0.9,0.4L292,125z M321.5,124.6l-0.1-0.3c0.3-0.1,0.6-0.3,0.8-0.4l0.1,0.3
					C322.1,124.3,321.8,124.5,321.5,124.6z M290.2,124.2c-0.3-0.1-0.6-0.3-0.8-0.5l0.1-0.3c0.2,0.1,0.5,0.3,0.8,0.5L290.2,124.2z
					 M323.2,123.7l-0.1-0.3c0.3-0.2,0.5-0.3,0.8-0.5l0.2,0.3C323.8,123.3,323.5,123.5,323.2,123.7z M288.5,123.1
					c-0.3-0.2-0.5-0.4-0.7-0.6l0.2-0.2c0.2,0.2,0.4,0.4,0.7,0.6L288.5,123.1z M324.8,122.5l-0.2-0.2c0.2-0.2,0.4-0.5,0.6-0.7
					l0.2,0.2C325.3,122,325.1,122.2,324.8,122.5z M287.1,121.7c-0.2-0.3-0.4-0.6-0.5-0.8l0.3-0.1c0.1,0.3,0.3,0.5,0.5,0.8
					L287.1,121.7z M326,120.9l-0.3-0.1c0.1-0.3,0.3-0.6,0.3-0.9l0.3,0.1C326.3,120.2,326.2,120.5,326,120.9z M286.1,119.8
					c-0.1-0.3-0.1-0.7-0.1-1h0.3l0,0c0,0.3,0,0.6,0.1,0.9L286.1,119.8z M326.6,118.8h-0.3h0.1l-0.1,0c0-0.3,0-0.6-0.1-0.9l0.3-0.1
					C326.5,118.2,326.6,118.4,326.6,118.8L326.6,118.8z M286.5,117.9l-0.3-0.1c0.1-0.3,0.2-0.6,0.4-1l0.3,0.1
					C286.7,117.3,286.5,117.6,286.5,117.9z M325.8,117c-0.1-0.2-0.3-0.5-0.5-0.8l0.2-0.2c0.2,0.3,0.4,0.6,0.5,0.8L325.8,117z
					 M287.4,116.1l-0.2-0.2c0.2-0.2,0.4-0.5,0.7-0.7l0.2,0.2C287.7,115.7,287.6,115.9,287.4,116.1z M324.6,115.5
					c-0.2-0.2-0.4-0.4-0.7-0.6l0.2-0.3c0.3,0.2,0.5,0.4,0.7,0.6L324.6,115.5z M288.7,114.8l-0.2-0.2c0.2-0.2,0.5-0.4,0.8-0.6
					l0.1,0.3C289.2,114.4,289,114.6,288.7,114.8z M323.1,114.2c-0.2-0.1-0.5-0.3-0.8-0.5l0.1-0.3c0.3,0.1,0.6,0.3,0.8,0.5
					L323.1,114.2z M290.4,113.7l-0.1-0.3c0.3-0.1,0.6-0.3,0.9-0.4l0.1,0.3C290.9,113.4,290.6,113.6,290.4,113.7z M321.4,113.3
					c-0.3-0.1-0.6-0.3-0.9-0.4l0.1-0.3c0.3,0.1,0.6,0.2,0.9,0.4L321.4,113.3z M292.1,112.9l-0.1-0.3c0.3-0.1,0.6-0.2,0.9-0.3
					l0.1,0.3C292.7,112.7,292.4,112.8,292.1,112.9z M319.6,112.6c-0.3-0.1-0.6-0.2-0.9-0.3l0.1-0.3c0.3,0.1,0.6,0.2,0.9,0.3
					L319.6,112.6z M293.9,112.2l-0.1-0.3c0.3-0.1,0.6-0.2,0.9-0.3l0.1,0.3C294.5,112,294.2,112.1,293.9,112.2z M317.8,111.9
					c-0.3-0.1-0.6-0.2-0.9-0.2l0.1-0.3c0.3,0.1,0.6,0.2,0.9,0.2L317.8,111.9z M295.8,111.6l-0.1-0.3c0.3-0.1,0.6-0.1,0.9-0.2l0,0.3
					C296.4,111.5,296.1,111.6,295.8,111.6z M315.9,111.4c-0.3,0-0.6-0.1-0.9-0.2l0-0.3c0.3,0,0.6,0.1,0.9,0.2L315.9,111.4z
					 M297.7,111.2l0-0.3c0.3,0,0.6-0.1,0.9-0.2l0,0.3C298.3,111.1,298,111.1,297.7,111.2z M314,111c-0.3,0-0.6-0.1-0.9-0.1l0-0.3
					c0.3,0,0.6,0.1,0.9,0.1L314,111z M299.5,110.9l0-0.3c0.3,0,0.6-0.1,0.9-0.1l0,0.3C300.2,110.8,299.9,110.8,299.5,110.9z
					 M312.1,110.7c-0.3,0-0.6-0.1-0.9-0.1l0-0.3c0.3,0,0.6,0,1,0.1L312.1,110.7z M301.5,110.6l0-0.3c0.3,0,0.6,0,1-0.1l0,0.3
					C302.1,110.5,301.8,110.6,301.5,110.6z M310.2,110.5c-0.3,0-0.6,0-0.9,0v-0.3c0.3,0,0.6,0,1,0L310.2,110.5z M303.4,110.4v-0.3
					c0.3,0,0.6,0,1,0v0.3C304,110.4,303.7,110.4,303.4,110.4z M308.3,110.4c-0.3,0-0.6,0-0.9,0V110c0.3,0,0.6,0,1,0L308.3,110.4z
					 M305.3,110.4V110c0.3,0,0.6,0,1,0h0v0.3h0C306,110.4,305.6,110.4,305.3,110.4z"/>
			</g>
			<g>
				<path class="st29" d="M306.3,102.3c-13.4,0-24.2,5.2-24.2,11.6s10.8,11.6,24.2,11.6s24.2-5.2,24.2-11.6S319.7,102.3,306.3,102.3
					z"/>
				<path class="st30" d="M306.3,104.3c-11.1,0-20.1,3.9-20.1,8.6s9,8.6,20.1,8.6c11.1,0,20.1-3.9,20.1-8.6
					C326.4,108.1,317.4,104.3,306.3,104.3z"/>
				<path class="st31" d="M306.3,121.7v-0.1v-0.1l0,0c0.3,0,0.6,0,0.9,0v0.3C306.9,121.7,306.6,121.7,306.3,121.7z M305.3,121.7
					c-0.3,0-0.6,0-1,0v-0.3c0.3,0,0.6,0,0.9,0L305.3,121.7z M308.2,121.7v-0.3c0.3,0,0.6,0,0.9,0v0.3
					C308.9,121.6,308.6,121.7,308.2,121.7z M303.4,121.6c-0.3,0-0.6,0-1,0l0-0.3c0.3,0,0.6,0,0.9,0V121.6z M310.1,121.5v-0.3
					c0.3,0,0.6,0,0.9-0.1l0,0.3C310.8,121.5,310.5,121.5,310.1,121.5z M301.4,121.4c-0.3,0-0.6,0-1-0.1l0-0.3c0.3,0,0.6,0.1,0.9,0.1
					V121.4z M312.1,121.3l0-0.3c0.3,0,0.6-0.1,0.9-0.1l0,0.3C312.7,121.3,312.4,121.3,312.1,121.3z M299.5,121.2
					c-0.3,0-0.6-0.1-0.9-0.1l0-0.3c0.3,0,0.6,0.1,0.9,0.1L299.5,121.2z M314,121l0-0.3c0.3,0,0.6-0.1,0.9-0.2l0,0.3
					C314.6,120.9,314.4,121,314,121z M297.6,120.8c-0.3,0-0.6-0.1-0.9-0.2l0-0.3c0.3,0,0.6,0.1,0.9,0.2L297.6,120.8z M315.9,120.6
					l0-0.3c0.3,0,0.6-0.1,0.9-0.2l0.1,0.3C316.6,120.5,316.2,120.6,315.9,120.6z M295.7,120.4c-0.3-0.1-0.6-0.1-0.9-0.2l0.1-0.3
					c0.3,0.1,0.6,0.2,0.9,0.2L295.7,120.4z M317.8,120.1l-0.1-0.3c0.3-0.1,0.6-0.2,0.9-0.3l0.1,0.3
					C318.4,119.9,318.1,120,317.8,120.1z M293.8,119.8c-0.3-0.1-0.6-0.2-0.9-0.3l0.1-0.3c0.3,0.1,0.6,0.2,0.9,0.3L293.8,119.8z
					 M319.7,119.5l-0.1-0.3c0.3-0.1,0.6-0.2,0.9-0.3l0.1,0.3C320.3,119.3,320,119.4,319.7,119.5z M292,119.1
					c-0.3-0.1-0.6-0.2-0.9-0.4l0.1-0.3c0.3,0.1,0.6,0.3,0.9,0.4L292,119.1z M321.5,118.7l-0.1-0.3c0.3-0.1,0.6-0.3,0.8-0.4l0.1,0.3
					C322.1,118.4,321.8,118.6,321.5,118.7z M290.2,118.3c-0.3-0.1-0.6-0.3-0.8-0.5l0.1-0.3c0.2,0.1,0.5,0.3,0.8,0.5L290.2,118.3z
					 M323.2,117.8l-0.1-0.3c0.3-0.2,0.5-0.3,0.8-0.5l0.2,0.3C323.8,117.4,323.5,117.6,323.2,117.8z M288.5,117.2
					c-0.3-0.2-0.5-0.4-0.7-0.6l0.2-0.2c0.2,0.2,0.4,0.4,0.7,0.6L288.5,117.2z M324.8,116.6l-0.2-0.2c0.2-0.2,0.4-0.5,0.6-0.7
					l0.2,0.2C325.3,116.1,325.1,116.3,324.8,116.6z M287.1,115.8c-0.2-0.3-0.4-0.6-0.5-0.8l0.3-0.1c0.1,0.2,0.3,0.5,0.5,0.8
					L287.1,115.8z M326,114.9l-0.3-0.1c0.1-0.3,0.3-0.6,0.3-0.9l0.3,0.1C326.3,114.3,326.2,114.6,326,114.9z M286.1,113.9
					c-0.1-0.3-0.1-0.7-0.1-1h0.3l0,0c0,0.3,0,0.6,0.1,0.9L286.1,113.9z M326.6,112.9h-0.3h0.1l-0.1,0c0-0.3,0-0.6-0.1-0.9l0.3-0.1
					C326.5,112.2,326.6,112.6,326.6,112.9L326.6,112.9z M286.5,112l-0.3-0.1c0.1-0.3,0.2-0.6,0.4-1l0.3,0.1
					C286.7,111.4,286.5,111.7,286.5,112z M325.8,111.1c-0.1-0.3-0.3-0.5-0.5-0.8l0.2-0.2c0.2,0.3,0.4,0.6,0.5,0.8L325.8,111.1z
					 M287.4,110.2l-0.2-0.2c0.2-0.2,0.4-0.5,0.7-0.7l0.2,0.2C287.7,109.8,287.6,110,287.4,110.2z M324.6,109.5
					c-0.2-0.2-0.4-0.4-0.7-0.6l0.2-0.2c0.3,0.2,0.5,0.4,0.7,0.6L324.6,109.5z M288.7,108.9l-0.2-0.2c0.2-0.2,0.5-0.4,0.8-0.6
					l0.1,0.3C289.2,108.5,289,108.7,288.7,108.9z M323.1,108.3c-0.2-0.1-0.5-0.3-0.8-0.5l0.1-0.3c0.3,0.1,0.6,0.3,0.8,0.5
					L323.1,108.3z M290.4,107.8l-0.1-0.3c0.3-0.1,0.6-0.3,0.9-0.4l0.1,0.3C290.9,107.5,290.6,107.7,290.4,107.8z M321.4,107.4
					c-0.3-0.1-0.6-0.3-0.9-0.4l0.1-0.3c0.3,0.1,0.6,0.2,0.9,0.4L321.4,107.4z M292.1,107l-0.1-0.3c0.3-0.1,0.6-0.2,0.9-0.3l0.1,0.3
					C292.7,106.7,292.4,106.9,292.1,107z M319.6,106.6c-0.3-0.1-0.6-0.2-0.9-0.3l0.1-0.3c0.3,0.1,0.6,0.2,0.9,0.3L319.6,106.6z
					 M293.9,106.3l-0.1-0.3c0.3-0.1,0.6-0.2,0.9-0.3l0.1,0.3C294.5,106.1,294.2,106.2,293.9,106.3z M317.8,106
					c-0.3-0.1-0.6-0.2-0.9-0.2l0.1-0.3c0.3,0.1,0.6,0.2,0.9,0.2L317.8,106z M295.8,105.7l-0.1-0.3c0.3-0.1,0.6-0.1,0.9-0.2l0,0.3
					C296.4,105.6,296.1,105.7,295.8,105.7z M315.9,105.5c-0.3,0-0.6-0.1-0.9-0.2l0-0.3c0.3,0,0.6,0.1,0.9,0.2L315.9,105.5z
					 M297.7,105.3l0-0.3c0.3,0,0.6-0.1,0.9-0.2l0,0.3C298.3,105.2,298,105.2,297.7,105.3z M314,105.1c-0.3,0-0.6-0.1-0.9-0.1l0-0.3
					c0.3,0,0.6,0.1,0.9,0.1L314,105.1z M299.5,105l0-0.3c0.3,0,0.6-0.1,0.9-0.1l0,0.3C300.2,104.9,299.9,104.9,299.5,105z
					 M312.1,104.8c-0.3,0-0.6-0.1-0.9-0.1l0-0.3c0.3,0,0.6,0,1,0.1L312.1,104.8z M301.5,104.7l0-0.3c0.3,0,0.6,0,1-0.1l0,0.3
					C302.1,104.6,301.8,104.7,301.5,104.7z M310.2,104.6c-0.3,0-0.6,0-0.9,0v-0.3c0.3,0,0.6,0,1,0L310.2,104.6z M303.4,104.5v-0.3
					c0.3,0,0.6,0,1,0v0.3C304,104.5,303.7,104.5,303.4,104.5z M308.3,104.5c-0.3,0-0.6,0-0.9,0v-0.3c0.3,0,0.6,0,1,0L308.3,104.5z
					 M305.3,104.5v-0.3c0.3,0,0.6,0,1,0h0v0.3h0C306,104.4,305.6,104.4,305.3,104.5z"/>
			</g>
			<g>
				<path class="st32" d="M306.3,93.9c-13.4,0-24.2,5.2-24.2,11.6s10.8,11.6,24.2,11.6s24.2-5.2,24.2-11.6S319.7,93.9,306.3,93.9z"
					/>
				<g>
					<path class="st33" d="M326,139.8c-1.2,0.8-2.7,1.5-4.4,2.2c-1.3,0.5-2.8,1-4.4,1.3c-1.4,0.3-2.9,0.6-4.4,0.8
						c-1.4,0.2-2.9,0.3-4.4,0.4c-0.7,0-1.4,0-2.1,0c-0.7,0-1.5,0-2.2,0c-1.5,0-3-0.2-4.4-0.4c-1.5-0.2-3-0.5-4.4-0.8
						c-1.6-0.4-3.1-0.8-4.4-1.3c-1.7-0.6-3.1-1.4-4.4-2.2c-2.2-1.4-3.7-3.1-4.3-4.9c0,1.6,0,4.8,0,6.2c0.7,1.7,2.2,3.3,4.3,4.7
						c1.3,0.8,2.7,1.6,4.4,2.2c1.3,0.5,2.8,1,4.4,1.4c1.4,0.3,2.9,0.6,4.4,0.8c1.4,0.2,2.9,0.3,4.4,0.4c0.7,0,1.5,0,2.2,0
						c0.7,0,1.4,0,2.1,0c1.5,0,3-0.2,4.4-0.4c1.5-0.2,3-0.5,4.4-0.8c1.6-0.4,3-0.8,4.4-1.4c1.6-0.6,3.1-1.4,4.4-2.2
						c2.1-1.4,3.7-3,4.4-4.7c0-1.4,0-4.7,0-6.2C329.8,136.7,328.3,138.4,326,139.8z"/>
					<path class="st33" d="M326,132.3c-1.2,0.8-2.7,1.5-4.4,2.2c-1.3,0.5-2.8,1-4.4,1.3c-1.4,0.3-2.9,0.6-4.4,0.8
						c-1.4,0.2-2.9,0.3-4.4,0.4c-0.7,0-1.4,0-2.1,0c-0.7,0-1.5,0-2.2,0c-1.5,0-3-0.2-4.4-0.4c-1.5-0.2-3-0.5-4.4-0.8
						c-1.6-0.4-3.1-0.8-4.4-1.3c-1.7-0.6-3.1-1.4-4.4-2.2c-2.2-1.4-3.7-3.1-4.3-4.9c0,1.6,0,4.8,0,6.2c0.7,1.7,2.2,3.3,4.3,4.7
						c1.3,0.8,2.7,1.6,4.4,2.2c1.3,0.5,2.8,1,4.4,1.4c1.4,0.3,2.9,0.6,4.4,0.8c1.4,0.2,2.9,0.3,4.4,0.4c0.7,0,1.5,0,2.2,0
						c0.7,0,1.4,0,2.1,0c1.5,0,3-0.2,4.4-0.4c1.5-0.2,3-0.5,4.4-0.8c1.6-0.4,3-0.8,4.4-1.4c1.6-0.6,3.1-1.4,4.4-2.2
						c2.1-1.4,3.7-3,4.4-4.7c0-1.4,0-4.7,0-6.3C329.8,129.1,328.3,130.9,326,132.3z"/>
					<path class="st33" d="M326,125.3c-1.2,0.8-2.7,1.5-4.4,2.2c-1.3,0.5-2.8,1-4.4,1.3c-1.4,0.3-2.9,0.6-4.4,0.8
						c-1.4,0.2-2.9,0.3-4.4,0.4c-0.7,0-1.4,0-2.1,0c-0.7,0-1.5,0-2.2,0c-1.5,0-3-0.2-4.4-0.4c-1.5-0.2-3-0.5-4.4-0.8
						c-1.6-0.4-3.1-0.8-4.4-1.3c-1.7-0.6-3.1-1.4-4.4-2.2c-2.2-1.4-3.7-3.1-4.3-4.9c0,1.6,0,4.8,0,6.2c0.7,1.7,2.2,3.3,4.3,4.7
						c1.3,0.8,2.7,1.6,4.4,2.2c1.3,0.5,2.8,1,4.4,1.4c1.4,0.3,2.9,0.6,4.4,0.8c1.4,0.2,2.9,0.3,4.4,0.4c0.7,0,1.5,0,2.2,0
						c0.7,0,1.4,0,2.1,0c1.5,0,3-0.2,4.4-0.4c1.5-0.2,3-0.5,4.4-0.8c1.6-0.4,3-0.8,4.4-1.4c1.6-0.6,3.1-1.4,4.4-2.2
						c2.1-1.4,3.7-3,4.4-4.7c0-1.4,0-4.7,0-6.2C329.8,122.2,328.3,123.8,326,125.3z"/>
					<path class="st33" d="M326,118.2c-1.2,0.8-2.7,1.5-4.4,2.2c-1.3,0.5-2.8,1-4.4,1.3c-1.4,0.3-2.9,0.6-4.4,0.8
						c-1.4,0.2-2.9,0.3-4.4,0.4c-0.7,0-1.4,0-2.1,0c-0.7,0-1.5,0-2.2,0c-1.5,0-3-0.2-4.4-0.4c-1.5-0.2-3-0.5-4.4-0.8
						c-1.6-0.4-3.1-0.8-4.4-1.3c-1.7-0.6-3.1-1.4-4.4-2.2c-2.2-1.4-3.7-3.1-4.3-4.9c0,1.6,0,4.8,0,6.2c0.7,1.7,2.2,3.3,4.3,4.7
						c1.3,0.8,2.7,1.6,4.4,2.2c1.3,0.5,2.8,1,4.4,1.4c1.4,0.3,2.9,0.6,4.4,0.8c1.4,0.2,2.9,0.3,4.4,0.4c0.7,0,1.5,0,2.2,0
						c0.7,0,1.4,0,2.1,0c1.5,0,3-0.2,4.4-0.4c1.5-0.2,3-0.5,4.4-0.8c1.6-0.4,3-0.8,4.4-1.4c1.6-0.6,3.1-1.4,4.4-2.2
						c2.1-1.4,3.7-3,4.4-4.7c0-1.4,0-4.7,0-6.2C329.8,115.1,328.3,116.8,326,118.2z"/>
					<path class="st33" d="M326,111c-1.2,0.8-2.7,1.5-4.4,2.2c-1.3,0.5-2.8,1-4.4,1.3c-1.4,0.3-2.9,0.6-4.4,0.8
						c-1.4,0.2-2.9,0.3-4.4,0.4c-0.7,0-1.4,0-2.1,0c-0.7,0-1.5,0-2.2,0c-1.5,0-3-0.2-4.4-0.4c-1.5-0.2-3-0.5-4.4-0.8
						c-1.6-0.4-3.1-0.8-4.4-1.3c-1.7-0.6-3.1-1.4-4.4-2.2c-2.2-1.4-3.7-3.1-4.3-4.9c0,1.6,0,4.8,0,6.2c0.7,1.7,2.2,3.3,4.3,4.7
						c1.3,0.8,2.7,1.6,4.4,2.2c1.3,0.5,2.8,1,4.4,1.4c1.4,0.3,2.9,0.6,4.4,0.8c1.4,0.2,2.9,0.3,4.4,0.4c0.7,0,1.5,0,2.2,0
						c0.7,0,1.4,0,2.1,0c1.5,0,3-0.2,4.4-0.4c1.5-0.2,3-0.5,4.4-0.8c1.6-0.4,3-0.8,4.4-1.4c1.6-0.6,3.1-1.4,4.4-2.2
						c2.1-1.4,3.7-3,4.4-4.7c0-1.4,0-4.7,0-6.2C329.8,107.8,328.3,109.5,326,111z"/>
				</g>
			</g>
			<path class="st33" d="M306.4,113.7L306.4,113.7c-10.4,0-21.4-3.2-21.4-9c0-5.8,11-9,21.4-9c10.4,0,21.4,3.2,21.4,9
				C327.8,110.6,316.7,113.7,306.4,113.7z M306.4,98.2c-11.1,0-18.9,3.5-18.9,6.5s7.7,6.5,18.9,6.5c11.1,0,18.9-3.5,18.9-6.5
				S317.5,98.2,306.4,98.2z"/>
			<g>
				<g>
					<path class="st33" d="M321.3,105.1h-3.5c-0.1,1.2-0.7,2.3-1.6,3l-4.3-0.5c0.8-0.7,1.6-1.8,1.6-2.9c0-1-0.8-1.7-2.3-1.7
						c-1.4,0-2.3,0.5-3.2,1.8c-1.3,1.9-3.1,3.2-6.7,3.2c-3.2,0-5.7-1.1-6.5-3h-3.5v-1.7h3.2c0.1-1.2,0.6-2,1.2-2.5l4.1,0.5
						c-0.4,0.4-1.2,1.2-1.2,2.5c0,1.1,1,1.5,2,1.5c1.2,0,2-0.6,3.1-2.1c1.5-2.1,3.5-2.9,6.8-2.9c3.2,0,6,1.1,6.7,3.1h3.7
						L321.3,105.1L321.3,105.1z"/>
				</g>
			</g>
		</g>
		<g>
			<path class="st32" d="M318.8,143.5c0,13.9-10.7,25.2-23.9,25.2S271,157.4,271,143.5c0-13.9,10.7-25.2,23.9-25.2
				C308.1,118.2,318.8,129.5,318.8,143.5z"/>
			<path class="st33" d="M294.9,165.6c-11.6,0-21-9.9-21-22.1c0-12.2,9.4-22.1,21-22.1s21,9.9,21,22.1
				C315.9,155.7,306.5,165.6,294.9,165.6z M294.9,125.5c-9.4,0-17.1,8.1-17.1,17.9c0,9.9,7.7,17.9,17.1,17.9s17.1-8.1,17.1-17.9
				C311.9,133.6,304.2,125.5,294.9,125.5z"/>
			<g>
				<path class="st33" d="M293,159v-3.6c-2.4-0.1-4.8-0.8-6.2-1.6l1.1-4.5c1.5,0.9,3.7,1.7,6,1.7c2.1,0,3.5-0.8,3.5-2.4
					c0-1.4-1.1-2.4-3.9-3.3c-3.9-1.4-6.5-3.3-6.5-7c0-3.4,2.2-6,6.1-6.8v-3.6h3.6v3.4c2.4,0.1,4.1,0.6,5.3,1.2l-1,4.3
					c-0.9-0.4-2.6-1.3-5.2-1.3c-2.4,0-3.1,1.1-3.1,2.1c0,1.2,1.3,2.1,4.4,3.3c4.3,1.6,6,3.7,6,7.1c0,3.4-2.3,6.3-6.4,7.1v3.9
					L293,159L293,159z"/>
			</g>
		</g>
	</g>
	<g>
		<g>
			<defs>
				
					<ellipse id="SVGID_1_" transform="matrix(0.7071 -0.7071 0.7071 0.7071 -20.7195 257.1104)" cx="300" cy="153.6" rx="78.5" ry="78.5"/>
			</defs>
			<clipPath id="SVGID_2_">
				<use xlink:href="#SVGID_1_"  style="overflow:visible;"/>
			</clipPath>
			<g class="st34">
				<path class="st35" d="M291.4,216.2c0,0,4.4,0.7,6.5-1.6c2.1-2.3,2.2-5,2.2-5s2.8,1.2,5.3-1.3c2.5-2.5,1.7-5.6,1.7-5.6
					s4.4,1.9,7.5-1.1c2.8-2.7,0.6-7,0.6-7s3.9,2.2,7.2-1.5c4-4.5,0.1-8.7,0.1-8.7l-20-20.7c-0.9-0.9,2.2-3.7,2.2-3.7
					c-6.5-6.4-7.5-9.1-13.4-8c0,0-13.3,6-33.1-19.3L239,151.2c16.2,16.7,20.1,22.5,19.7,29.4c-0.1,2.2,0.8,4.4,2.3,5.9L291.4,216.2z
					"/>
				
					<rect x="241.8" y="152" transform="matrix(0.7172 -0.6968 0.6968 0.7172 -34.4359 228.403)" class="st36" width="44.8" height="9.4"/>
				<polygon class="st37" points="204.6,129.7 230.8,83.6 279.2,135.6 242.7,171.1 				"/>
				<polygon class="st38" points="313.6,184.6 314.8,187 291.9,209.4 				"/>
				<g>
					<path class="st39" d="M296.3,226c0,0-4.4,0.5-6.4-1.8c-2-2.4-2-5.1-2-5.1s-2.8,1.1-5.3-1.5c-2.4-2.6-1.4-5.7-1.4-5.7
						s-4.5,1.8-7.4-1.4c-2.6-2.8-0.3-7-0.3-7s-4,2.1-7.2-1.8c-3.8-4.6,0.2-8.7,0.2-8.7l37.8-35.7c0.9-0.9-2.6-2.6-2.6-2.6
						c3.7-3.6,6.3-3.4,8.4-3c0,0,13.1,6.5,33.8-18l18.3,19.2c-16.9,16.1-21,21.7-20.8,28.6c0,2.2-1,4.3-2.6,5.8L296.3,226z"/>
					
						<rect x="332.1" y="134.9" transform="matrix(0.7247 -0.689 0.689 0.7247 -15.6611 275.3668)" class="st36" width="9.4" height="44.8"/>
					<polygon class="st40" points="397.5,132.8 373.1,85.7 322.7,135.6 357.8,172.6 					"/>
					<polygon class="st38" points="286.4,183.3 285.1,185.6 307.1,209 					"/>
					<polygon class="st38" points="273.8,202.9 284.5,190.7 287,191.9 					"/>
					<polygon class="st38" points="281.1,211.8 292.7,197.8 293.9,200.1 					"/>
					<polygon class="st38" points="288.5,218.6 300,207 300.7,210 					"/>
				</g>
				<path class="st35" d="M292.4,151.7c2.8-0.4,14.2,3,19.2,10.6c5,7.5-6,18-8.4,20.3c-2.3,2.2-5.6,0.5-6.4-2.2
					c-0.5-1.8,4-10.5,4-10.5s-4.3-5.2-5.4-4.5c0,0-9.9,13.8-16.9,8.1c-6-5,0.3-11.7,0.3-11.7S286.3,152.6,292.4,151.7z"/>
				<g>
					<path class="st35" d="M324.7,211.7L324.7,211.7c2.4-2.1,2.6-5.5,0.5-7.8l-9-10.1c-2-2.3-5.5-2.5-7.8-0.4l-0.1,0
						c-2.3,2-2.5,5.5-0.4,7.8l9,10.1C319,213.5,322.4,213.7,324.7,211.7z"/>
					<path class="st35" d="M316.4,219.1L316.4,219.1c2.4-2.1,2.6-5.5,0.5-7.8l-9-10.1c-2-2.3-5.5-2.5-7.8-0.4l-0.1,0
						c-2.3,2-2.5,5.5-0.4,7.8l9,10.1C310.6,220.9,314.2,221.1,316.4,219.1z"/>
					<path class="st35" d="M308.1,226.5L308.1,226.5c2.4-2.1,2.6-5.5,0.5-7.8l-9-10.1c-2-2.3-5.5-2.5-7.8-0.4l-0.1,0
						c-2.3,2-2.5,5.5-0.4,7.8l9,10.1C302.4,228.3,305.8,228.5,308.1,226.5z"/>
					<path class="st35" d="M333,204.3L333,204.3c2.4-2.1,2.6-5.5,0.5-7.8l-9-10.1c-2-2.3-5.5-2.5-7.8-0.4l-0.1,0
						c-2.3,2-2.5,5.5-0.4,7.8l9,10.1C327.2,206.1,330.7,206.3,333,204.3z"/>
				</g>
			</g>
		</g>
	</g>
	<circle class="st0" cx="328.6" cy="135.5" r="1.8"/>
	<circle class="st0" cx="273.8" cy="134.9" r="1.8"/>
	<path class="st0" d="M243.9,164.5c0,1-0.8,1.8-1.8,1.8c-1,0-1.8-0.8-1.8-1.8c0-1,0.8-1.8,1.8-1.8
		C243.1,162.6,243.9,163.4,243.9,164.5z"/>
	<path class="st0" d="M360.3,166.3c0,1-0.8,1.8-1.8,1.8c-1,0-1.8-0.8-1.8-1.8c0-1,0.8-1.8,1.8-1.8
		C359.5,164.5,360.3,165.3,360.3,166.3z"/>
</g>
</svg>
