<?xml version="1.0" encoding="utf-8"?>
<!-- Generator: Adobe Illustrator 22.1.0, SVG Export Plug-In . SVG Version: 6.00 Build 0)  -->
<svg version="1.1" xmlns="http://www.w3.org/2000/svg" xmlns:xlink="http://www.w3.org/1999/xlink" x="0px" y="0px" width="136px"
	 height="111.3px" viewBox="0 0 136 111.3" style="enable-background:new 0 0 136 111.3;" xml:space="preserve">
<style type="text/css">
	.st0{display:none;}
	.st1{display:inline;}
	.st2{fill:#5D1E79;}
	.st3{fill:#D6DE23;stroke:#D5DE2B;stroke-width:0.216;stroke-miterlimit:22.9256;}
	.st4{fill:#FFFFFF;}
	.st5{fill:#5D2873;}
</style>
<g id="Layer_1" class="st0">
	<g class="st1">
		<path class="st2" d="M68.3,2.8c17.7,0,35.4,0,53.1,0c4.3,0,6.7,2.4,6.7,6.7c0,22.6,0,45.1,0,67.7c0,4-2.8,6.8-6.8,6.8
			c-13.5,0-27.1,0-40.6,0c-1.7,0-1.7,0-1.5,1.6c0.3,3.2,0.6,6.3,0.9,9.5c0.1,0.9,0.3,1.2,1.3,1.1c2.4-0.1,4.8,0,7.2,0
			c2.8-0.1,5.1,4,4.7,6.4c-0.1,0.3-0.2,0.5-0.5,0.5c-0.2,0-0.5,0-0.7,0c-16.2,0-32.4,0-48.6,0c-1.1,0-1.4-0.2-1.1-1.3
			c0.4-1.5,0.9-2.9,2-4.1c0.9-1,2.1-1.6,3.5-1.6c2.4,0,4.8,0,7.2,0c0.6,0,0.9,0,1-0.8c0.3-3.5,0.6-7,1-10.4c0.1-0.9-0.2-1.1-1-1.1
			c-13.7,0-27.3,0-41,0c-4.3,0-7-2.7-7-7c0-22.3,0-44.6,0-66.9c0-5,2.3-7.4,7.4-7.4C33,2.8,50.6,2.8,68.3,2.8z M68.3,66.4
			c17.3,0,34.5,0,51.8,0c0.9,0,1.2-0.2,1.2-1.1c0-18.1,0-36.3,0-54.4c0-1-0.3-1.2-1.3-1.2c-34.4,0-68.8,0-103.3,0
			c-1,0-1.3,0.2-1.3,1.3c0,18.1,0,36.1,0,54.2c0,1,0.2,1.3,1.3,1.3C33.9,66.4,51.1,66.4,68.3,66.4z"/>
		<g>
			<path class="st2" d="M63.9,21.3c0.1-0.2,0.1-0.3,0-0.5c0.1-0.3,0.1-0.7,0-1c0.1-0.1,0.1-0.3,0-0.4c0-0.3,0-0.7,0-1
				c0.1-0.1,0.1-0.3,0-0.4c0.1-0.3,0.1-0.7,0-1c0.1-0.1,0-0.3,0-0.4c0-0.5,0.2-0.9,0.7-1.1c0.5-0.2,0.9,0.1,1.2,0.4
				c0,0.2,0.1,0.4,0.1,0.6c0,0.7,0,1.3,0,2c0,0.3,0,0.5,0,0.8c0,0.7,0,1.3,0,2c0,0.3,0,0.5,0,0.8c0,0.6,0,1.2-0.7,1.5
				c-0.1,0-0.3,0-0.4,0c-0.2,0-0.3-0.1-0.5-0.1c-0.1-0.1-0.2-0.2-0.3-0.3C64,23,64,22.9,63.9,22.7c0-0.2,0-0.3,0-0.5
				C63.9,21.9,63.9,21.6,63.9,21.3z"/>
			<path class="st2" d="M68.2,35.5c0.1-0.1,0.2-0.2,0.3-0.3c0.4-0.3,0.7-0.7,1.1-1.1c0.1-0.1,0.2-0.2,0.3-0.3
				c0.4-0.3,0.7-0.7,1.1-1.1c0.1-0.1,0.2-0.2,0.3-0.3c0.4-0.4,0.7-0.7,1.1-1.1c0.1-0.1,0.2-0.2,0.3-0.3c0.4-0.4,0.7-0.7,1.1-1.1
				c0.1-0.1,0.2-0.2,0.3-0.3c0.4-0.4,0.7-0.7,1.1-1.1c0.1-0.1,0.2-0.2,0.3-0.3c0.4-0.4,0.7-0.7,1.1-1.1c0.1-0.1,0.2-0.2,0.3-0.3
				c0.4-0.4,0.7-0.7,1.1-1.1c0.1-0.1,0.2-0.2,0.3-0.3c0.4-0.4,0.7-0.7,1.1-1.1c0.1-0.1,0.2-0.2,0.3-0.3c0.4-0.4,0.8-0.8,1.2-1.2
				c0.1-0.1,0.1-0.1,0.2-0.2c0.4-0.4,0.8-0.8,1.2-1.2c0.1-0.1,0.2-0.2,0.3-0.3c0.4-0.3,0.8-0.4,1.2-0.6c0.3,0,0.5,0,0.8,0
				c0.6,0,1.1,0.2,1.6,0.5c0.1,0.1,0.1,0.1,0.2,0.2c0.4,0.4,0.7,0.8,0.9,1.3c0,0.1,0,0.3,0.1,0.4c0,0.2,0,0.4,0,0.6
				c0,0.1,0,0.3,0,0.4c-0.1,0.5-0.4,1-0.7,1.5c-0.1,0.1-0.2,0.2-0.3,0.3c-0.4,0.4-0.7,0.7-1.1,1.1c-0.1,0.1-0.2,0.2-0.3,0.3
				c-0.4,0.4-0.7,0.7-1.1,1.1c-0.1,0.1-0.2,0.2-0.3,0.3c-0.4,0.4-0.7,0.7-1.1,1.1c-0.1,0.1-0.2,0.2-0.3,0.3
				c-0.4,0.4-0.7,0.7-1.1,1.1c-0.1,0.1-0.2,0.2-0.3,0.3c-0.4,0.4-0.8,0.8-1.2,1.2c-0.1,0-0.2,0.1-0.2,0.2c-0.4,0.4-0.8,0.9-1.2,1.3
				c0.3,0.1,0.6-0.1,0.8-0.1c0.1,0,0.3,0,0.4,0c0.4,0.1,0.9,0.1,1.3,0.3c0.9,0.5,1.4,1.3,1.6,2.2c0,0.5-0.1,1-0.2,1.5
				c-0.1,0-0.1,0.1-0.1,0.2c-0.3,0.4-0.5,0.7-0.9,1.1c0.4,0,0.8-0.2,1.3-0.2c0.3,0,0.5,0.1,0.8,0.1c0.4,0.1,0.7,0.3,1.1,0.5
				c0.1,0.1,0.2,0.2,0.3,0.3c0.3,0.4,0.5,0.8,0.7,1.3c0,0.2,0,0.4,0.1,0.6c-0.1,0.5-0.2,1-0.4,1.5c-0.3,0.3-0.6,0.7-0.9,1
				c0,0-0.1,0-0.1,0.1c0,0,0,0,0,0c0,0,0.1,0,0.1-0.1c0.4-0.1,0.8-0.3,1.3-0.3c0.1,0,0.2,0,0.3,0c0.1,0,0.3,0,0.4,0
				c0.5,0.2,1,0.4,1.5,0.8c0.1,0.1,0.1,0.1,0.2,0.2c0.3,0.5,0.6,1,0.6,1.7c0,0.2,0,0.4,0,0.6c-0.1,0.6-0.4,1.1-0.7,1.5
				c-0.1,0.1-0.2,0.2-0.3,0.3c-0.4,0.4-0.7,0.7-1.1,1.1c-0.1,0.1-0.2,0.2-0.3,0.3c-0.4,0.4-0.7,0.7-1.1,1.1
				c-0.1,0.1-0.2,0.2-0.3,0.3c-0.4,0.4-0.7,0.7-1.1,1.1c-0.1,0.1-0.2,0.2-0.3,0.3c-0.4,0.4-0.7,0.7-1.1,1.1
				c-0.1,0.1-0.2,0.2-0.3,0.3c-0.4,0.4-0.7,0.7-1.1,1.1c-0.1,0.1-0.2,0.2-0.3,0.3c-0.4,0.4-0.7,0.7-1.1,1.1
				c-0.1,0.1-0.2,0.2-0.3,0.3c-0.4,0.4-0.8,0.8-1.2,1.2c-0.1,0-0.2,0.1-0.2,0.2c-0.4,0.4-0.8,0.8-1.2,1.2c-0.1,0.1-0.1,0.1-0.2,0.2
				c-0.4,0.3-0.8,0.6-1.3,1c-0.1,0.1-0.3,0.2-0.4,0.2c-0.4,0.2-0.8,0.3-1.2,0.5c-0.3,0-0.5,0.1-0.8,0.2c-0.7,0.1-1.4,0.1-2.2,0.1
				c-0.2,0-0.3-0.1-0.5-0.1c-0.5-0.2-1.1-0.3-1.6-0.5c-0.1-0.1-0.2-0.1-0.4-0.2c-0.5-0.3-1-0.6-1.5-0.9c-2.7-2.7-5.5-5.5-8.2-8.2
				c-0.1-0.1-0.3-0.3-0.4-0.5c-0.2-0.5-0.4-1.1-0.5-1.6c0-0.1,0-0.2-0.1-0.2c-0.1-0.3-0.2-0.7-0.3-1c-0.1-0.4-0.2-0.8-0.4-1.1
				c-0.1-0.6-0.4-1.3-0.6-1.9c0-0.1,0-0.2-0.1-0.3c-0.1-0.3-0.2-0.6-0.3-0.9c-0.1-0.5-0.3-0.9-0.4-1.4c-0.2-0.5-0.4-1.1-0.5-1.6
				c0-0.1,0-0.2-0.1-0.3c-0.1-0.3-0.2-0.6-0.3-0.9c-0.1-0.4-0.2-0.8-0.4-1.2c-0.1-0.7-0.6-1.1-1.1-1.6c0,0-0.1-0.1-0.1-0.1
				c-0.9-1-1.8-1.9-2.8-2.8l0,0c-0.4-0.5-0.9-0.9-1.4-1.4l0,0c-0.2-0.2-0.5-0.4-0.5-0.6c0-0.2,0.3-0.4,0.5-0.6
				c0.1-0.1,0.2-0.2,0.3-0.3c0.4-0.4,0.8-0.8,1.3-1.2l0,0c0.5-0.1,0.9-0.2,1.4-0.2c0.1,0,0.2,0,0.3,0c0.2,0,0.4,0,0.6,0
				c0.2,0.1,0.3,0.1,0.5,0.1c0.3,0.1,0.7,0.2,1,0.2c0.1,0.1,0.2,0.1,0.3,0.1c0.6,0.2,1.1,0.4,1.7,0.7c0.7,0.4,1.4,0.9,2.1,1.3
				c0.3,0.3,0.6,0.6,1,0.9c0.1,0.2,0.2,0.4,0.4,0.5l0,0c0.4,0.5,0.7,1.1,1.1,1.6c0.3,0.5,0.5,0.9,0.8,1.4c0.1,0.1,0.1,0.2,0.2,0.3
				c0.3,0.5,0.6,1,0.9,1.5c0,0.1,0,0.2,0.1,0.2c0.2,0.5,0.5,0.9,0.7,1.3c0.4-0.4,0.7-0.7,1.1-1c0.1-0.1,0.2-0.2,0.3-0.3
				c0.4-0.4,0.7-0.7,1.1-1.1c0.1-0.1,0.2-0.2,0.3-0.3c0.4-0.3,0.7-0.7,1.1-1.1c0.1-0.1,0.2-0.2,0.3-0.3
				C67.5,36.3,67.8,35.9,68.2,35.5z"/>
			<path class="st2" d="M60.5,24.5c-0.2,0.1-0.5,0.1-0.7,0.2c-0.6-0.1-0.9-0.7-1.4-1c0,0,0,0-0.1-0.1c-0.4-0.5-0.8-0.9-1.3-1.3
				c-0.1-0.1-0.1-0.1-0.2-0.2c-0.4-0.4-0.7-0.8-1.2-1.2c-0.1-0.1-0.1-0.1-0.2-0.2c0-0.2-0.2-0.3-0.3-0.4c-0.3-0.3-0.4-0.7-0.3-1.1
				c0.1-0.3,0.4-0.5,0.6-0.7c0.7-0.2,1.1,0.3,1.5,0.7c1.2,1.2,2.3,2.3,3.5,3.5c0.4,0.4,0.6,0.8,0.4,1.4
				C60.7,24.2,60.6,24.4,60.5,24.5z"/>
			<path class="st2" d="M75.1,19.7c0,0.1,0,0.1,0,0.2c-0.3,0.5-0.7,0.8-1.1,1.2c-0.1,0.1-0.2,0.2-0.3,0.3c-0.4,0.3-0.8,0.7-1.1,1.1
				c-0.1,0.1-0.2,0.2-0.3,0.3c-0.4,0.4-0.8,0.8-1.2,1.2c-0.1,0-0.2,0.1-0.2,0.2c-0.7,0.6-1,0.6-1.7,0.1c-0.1-0.1-0.1-0.2-0.2-0.3
				c-0.1-0.5,0-0.9,0.4-1.3c0.1-0.1,0.2-0.1,0.2-0.3c0.5-0.2,0.8-0.7,1.2-1.1c0.1-0.1,0.2-0.2,0.3-0.3c0.4-0.4,0.7-0.7,1.1-1.1
				c0.1-0.1,0.2-0.2,0.3-0.3c0.4-0.3,0.7-0.7,1.1-1c0.1,0,0.2-0.1,0.3-0.1c0.2,0,0.4,0,0.6,0.1c0.1,0.1,0.2,0.1,0.3,0.2
				C75,19.1,75.1,19.4,75.1,19.7z"/>
		</g>
	</g>
</g>
<g id="Layer_2" class="st0">
	<g class="st1">
		<path class="st3" d="M52.9,36.6c1.7-3.5,4.3-6.1,7.8-7.8c0.4-0.2,0.8-0.4,1.2-0.5c0.9-0.4,1.8,0.3,1.9,1.3c0.1,0.6-0.3,1-0.9,1.3
			c-3.4,1.4-5.9,3.7-7.5,7c-0.4,0.9-1.2,1.2-2,0.8C52.6,38.3,52.4,37.4,52.9,36.6z"/>
		<path class="st3" d="M96.8,5.5H39.2c-4,0-7.2,3.2-7.2,7.1v86.2c0,3.9,3.2,7.1,7.2,7.1h57.7c4,0,7.2-3.2,7.2-7.1V12.6
			C104,8.7,100.8,5.5,96.8,5.5z M64.3,21.3c0.2-1.7,1.9-3.2,3.7-3.2c1.7,0,3.4,1.4,3.6,3.2c0.1,0.4,0,0.6-0.5,0.5
			c-1.1-0.1-2.1-0.3-3.2-0.2c-1.1-0.1-2.1,0.1-3.2,0.2C64.3,21.9,64.3,21.7,64.3,21.3z M51,34.1c1.9-3.3,4.5-5.8,7.9-7.5
			c3.4-1.8,7.1-2.5,11-2.1c5.1,0.5,9.4,2.7,12.8,6.4c2,2.2,3.4,4.7,4.2,7.5c0.1,0.3,0.5,1.4,0.6,2.6c0,0.1,0,0.2,0,0.3
			c0,0.2,0,0.4,0,0.5v0c0,0,0,0,0,0c0.1,0.5-0.1,0.6-0.6,0.6c-12.6,0-25.2,0-37.9-0.1c-0.2,0-0.6,0.2-0.6-0.3
			C48.7,39.2,49.6,36.6,51,34.1z M90.9,85.4c-0.2,0.1-0.5,0-0.8,0c-14.7,0-29.4,0-44.2,0c-0.5,0-1.1,0-1.5-0.4
			c-0.3-0.4-0.6-0.8-0.3-1.4c0.2-0.6,0.6-0.9,1.2-1c0.3,0,0.5,0,0.8,0c7.3,0,14.6,0,21.9,0c7.4,0,14.8,0,22.2,0c0.5,0,1.1,0,1.5,0.5
			C92.4,84,91.9,85.2,90.9,85.4z M90.9,77.8c-0.2,0.1-0.5,0-0.8,0c-14.7,0-29.4,0-44.2,0c-0.5,0-1.1,0-1.5-0.4
			c-0.3-0.4-0.6-0.8-0.3-1.4c0.2-0.6,0.6-0.9,1.2-1c0.3,0,0.5,0,0.8,0c7.3,0,14.6,0,21.9,0c7.4,0,14.8,0,22.2,0c0.5,0,1.1,0,1.5,0.5
			C92.4,76.4,91.9,77.6,90.9,77.8z M90.9,70.3c-0.2,0.1-0.5,0-0.8,0c-14.7,0-29.4,0-44.2,0c-0.5,0-1.1,0-1.5-0.4
			c-0.3-0.4-0.6-0.8-0.3-1.4c0.2-0.6,0.6-0.9,1.2-1c0.3,0,0.5,0,0.8,0c7.3,0,14.6,0,21.9,0c7.4,0,14.8,0,22.2,0c0.5,0,1.1,0,1.5,0.5
			C92.4,68.8,91.9,70,90.9,70.3z M90.9,47.9c-0.2,0.1-0.5,0-0.8,0c-14.7,0-29.4,0-44.2,0c-0.5,0-1.1,0-1.5-0.4
			c-0.3-0.4-0.6-0.8-0.4-1.4c0.2-0.6,0.6-0.9,1.2-1c0.3,0,0.5,0,0.8,0H68c7.4,0,14.8,0,22.2,0c0.5,0,1.1,0,1.5,0.5
			C92.4,46.4,91.9,47.6,90.9,47.9z"/>
	</g>
</g>
<g id="Layer_3" class="st0">
	<g class="st1">
		<path class="st2" d="M110.3,85.7l-26.9-9.5L82.9,76c0.1-0.5,0.2-0.9,0.3-1.4c0.3-1.4,0.3-4.6,0.2-5.3c0-0.4,0-0.7,0-1.1
			c-0.1-1.7-0.4-3.4,1.2-4.6c0.7-1.1,1.4-2.2,2.1-3.3c0.6-1,1.1-2.1,1.7-3.2c0.1-0.3,0.2-0.5,0.6-0.6c1.8-0.5,3.1-1.8,4.2-3.1
			c1.6-1.9,2.7-4.2,3.7-6.5c0.1-0.5,0.2-1.1,0.5-1.5c0.2-1.3,0.4-2.6,0.7-4c0-0.4,0-0.7,0-1.1c-0.2-0.8-0.4-1.5-1-2.2
			c-0.2-0.1-0.4-0.3-0.6-0.5c-0.8-0.3-1.5-0.5-2.4-0.5c-0.6,0.2-1.3,0.5-1-0.7c0-1.2,0-2.3,0.2-3.5c-0.1-0.4-0.1-0.7,0-1.1
			c0-1.1,0-2.2,0-3.3c-0.2-0.3-0.1-0.6-0.1-0.9c0-1-0.1-2-0.2-3.1c-0.2-0.4-0.1-0.7-0.1-1.1c-0.1-0.9-0.3-1.9-0.4-2.8
			c-0.1-0.4-0.1-0.7-0.2-1.1c-0.2-0.9-0.4-1.8-0.6-2.7c-0.2-0.2-0.2-0.4-0.2-0.6c-0.3-0.7-0.7-1.3-1-2c-0.2-0.2-0.3-0.4-0.5-0.6
			c-0.6-0.5-1.2-1-1.8-1.5c-0.3-0.2-0.5-0.4-0.8-0.6c-0.7-0.4-1.4-0.8-2.1-1.3c-0.2,0-0.4-0.1-0.5-0.3C84,10,83.2,9.7,82.5,9.4
			c-0.3-0.1-0.6-0.1-0.8-0.3c-0.8-0.2-1.6-0.5-2.4-0.7c-0.4-0.1-0.8-0.2-1.1-0.3c-2.6-0.6-5.2-1.2-7.8-1.6c-0.3,0-0.5-0.2-0.7-0.4
			c-0.8-0.9-2.2-0.9-3.1,0c-0.2,0.2-0.4,0.3-0.6,0.4c-2.9,0.4-5.7,1.1-8.6,1.7c-0.5,0.3-1,0.4-1.5,0.4c-1.8,0.7-3.5,1.3-5.3,2
			c-1,0.6-1.9,1.2-2.8,1.8c-0.7,0.7-1.4,1.5-2.1,2.2c-0.3,0.6-0.6,1.3-1,1.9c-0.3,1.4-0.6,2.8-0.9,4.2c-0.1,0.5-0.2,1-0.2,1.5
			c-0.1,1.2-0.3,2.4-0.4,3.6c0,0.4,0,0.7,0,1.1c-0.1,1.1-0.1,2.2-0.2,3.3c0.1,0.4,0.1,0.9,0,1.3c0,1,0,2.1,0,3.1
			c0,0.2,0.1,0.4,0.1,0.6c0,0.7,0.3,1.4,0,1.9c-0.3,0.7-1.1-0.1-1.7,0.1c-0.3,0.1-0.7,0.1-1.1,0.2c-1,0.3-1.6,1.1-2,2
			c-0.1,0.4-0.1,0.9-0.2,1.3c0.1,0.9,0.2,1.9,0.3,2.8c0.1,0.4,0.2,0.7,0.2,1.1c0.2,0.8,0.5,1.6,0.7,2.4c0,0.2,0.1,0.3,0.2,0.5
			c0.3,0.8,0.7,1.6,1,2.3c0.2,0.3,0.3,0.6,0.5,0.9c0.4,0.7,0.9,1.3,1.3,2c0.2,0.2,0.4,0.5,0.6,0.7c0.5,0.5,0.9,1,1.4,1.5
			c0.3,0.2,0.6,0.5,0.9,0.7c0.6,0.3,1.2,0.6,1.7,0.9c0.4,0,0.7,0.1,0.7,0.5c0.4,0.8,0.8,1.6,1.3,2.4c0.2,0.1,0.3,0.3,0.3,0.5
			c0.5,0.8,1,1.6,1.5,2.4c0.2,0,0.2,0.2,0.2,0.3c0.4,0.6,0.9,1.2,1.3,1.8c0.3,0.3,0.7,0.6,0.6,1.2c0,0.1,0,0.1,0,0.2l0,8.7
			c0,0.3,0,0.5,0.1,0.7c0,0.3,0.1,0.6,0.1,0.8l-0.1,0l-26.9,9.5c0,0-6,3.1-5.5,20.1h95.6C116.3,88.8,110.3,85.7,110.3,85.7z
			 M49.9,30.9c4-2.9,8.5-4.5,13.2-5.2c7.8-1.2,15.1,0.4,21.8,4.7c0.3,0.2,0.6,0.4,0.8,0.7c0.2,0.1,0.2,0.2,0.1,0.4
			c-0.1-0.1-0.2-0.2-0.3-0.2c-4.8-2.4-9.8-4.1-15.1-4.6c-5.5-0.5-10.8,0.6-15.9,2.6C52.7,30,50.9,30.9,49,32
			C49.2,31.4,49.6,31.2,49.9,30.9z M54.6,61.9c-0.5-0.6-1-1.2-1.3-2c-0.2-0.2-0.4-0.4-0.4-0.7c-0.5-0.6-0.9-1.3-1.2-1.9
			c-0.1-0.2-0.2-0.4-0.4-0.7c-0.5-0.7-0.8-1.4-1.1-2.2c-0.1-0.2-0.3-0.4-0.4-0.7c-0.9,0-1.7-0.1-2.4-0.6c-0.3,0-0.5-0.2-0.7-0.4
			c-0.7-0.4-1.3-1-1.8-1.6c-0.2-0.2-0.3-0.4-0.5-0.6c-0.6-0.7-1-1.5-1.3-2.3c-0.1-0.2-0.1-0.4-0.2-0.5c-0.5-0.9-0.8-1.8-1-2.8
			c-0.1-0.4-0.2-0.7-0.2-1.1c-0.1-0.6-0.2-1.2-0.2-1.7c0-0.9,0.4-1.5,1.3-1.6c0.8-0.1,1.7-0.1,2.1,0.9c0.2,0.1,0.3,0.4,0.4,0.7
			c0.4,0.8,0.7,1.7,0.7,2.6c0,0.3,0.1,0.6,0.2,0.8c1.6,0.9,1.6,0.9,1.6-1.1c0-0.4,0-0.7,0-1.1c-0.1-0.4-0.2-0.7-0.1-1.1
			c-0.1-1.7-0.4-3.3-0.3-5.2c1.2,0.9,2.4,1.5,3.5,2.1c0.4,0.1,0.8,0.3,1.2,0.4c1.1,0.1,2.2,0.3,3.1-0.5c1.5-1.3,3.1-2.7,4.8-3.7
			c1.7-1.2,3.5-2,5.6-2.3c0.4,0,0.9-0.1,1.3-0.1c1.1-0.2,2.2-0.1,3.3,0.1c0.3,0.1,0.6,0.1,0.9,0.2c1,0.1,2,0.4,2.9,1
			c0.1,0.1,0.3,0.1,0.4,0.2c0.7,0.3,1.4,0.7,2,1.2c0.4,0.1,0.7,0.4,0.9,0.7c0.7,0.4,1.2,0.8,1.7,1.3c0.3,0.2,0.5,0.4,0.8,0.6
			c0.6,0.4,1.1,0.8,1.7,1.2c0.3,0.1,0.6,0.2,0.9,0.2c1.7,0,3.1-0.8,4.6-1.4c0.5-0.3,1-0.7,1.7-1.1c0.2,0.4,0.1,0.8,0.1,1.2
			c0.1,1.2-0.2,2.3-0.3,3.5c0.1,0.4,0,0.9-0.1,1.3c0,1,0,2.1,0,3.1c0.2,0.1,0.4,0,0.6-0.1c0.3-0.4,1-0.4,1.1-1
			c0-0.4-0.1-0.9,0.2-1.3c0-0.7,0.3-1.3,0.6-2c0.6-1.3,1.1-1.5,2.5-1.3c0.5,0.1,0.9,0.3,1.1,0.9c0.3,1.2,0,2.3-0.3,3.5
			c-0.1,0.6-0.3,1.2-0.5,1.8c-0.7,2.2-1.8,4.2-3.6,5.7c-1,0.8-2.1,1.4-3.5,1.3c-0.2,0.2-0.4,0.4-0.6,0.7c-2.3,4.6-5,9-8.8,12.5
			c-2,1.8-4.3,3.2-7.1,3.4c-0.4,0.1-0.9,0.2-1.3,0.1c-1,0.2-2,0-3.1-0.2c-0.3-0.1-0.6-0.1-0.9-0.2c-0.9-0.1-1.7-0.4-2.4-0.9
			c-0.3,0-0.5-0.2-0.7-0.4c-0.8-0.3-1.4-0.8-2-1.4c-0.3-0.1-0.5-0.3-0.7-0.6c-0.7-0.5-1.3-1.1-1.8-1.8c-0.1-0.1-0.2-0.3-0.4-0.4
			c-0.6-0.5-1.1-1.1-1.5-1.8C55,62.5,54.8,62.2,54.6,61.9z M79.8,75.4L79.8,75.4L79.8,75.4c0,0.1,0,0.2,0,0.3
			c-0.1,0.5-0.2,1-0.3,1.5c0,0.6-0.2,1.1-0.3,1.6c-1.1,3.9-3.4,6.8-6.6,9.1c-1.2,0.8-2.5,1.6-3.4,2.7c-0.7,0.8-1.2,0.7-1.8-0.1
			c-0.3-0.2-0.6-0.5-0.9-0.7c-0.6-0.4-1.2-0.8-1.8-1.2c-0.2-0.1-0.4-0.3-0.6-0.4c-0.7-0.4-1.4-0.8-2-1.4c-0.3-0.1-0.6-0.4-0.7-0.6
			c-0.6-0.4-1.1-0.9-1.5-1.6c-0.3-0.2-0.5-0.5-0.7-0.9c-0.5-0.6-0.9-1.2-1.2-2c-0.1-0.2-0.2-0.3-0.2-0.5c-0.5-0.9-0.9-1.8-1-2.9
			c-0.2-0.3-0.3-0.6-0.2-0.9c-0.1-0.4-0.2-0.9-0.3-1.4c0-0.2,0-0.4,0-0.6c0,0,0,0,0-0.1h0c0-0.3,0-0.5,0-0.8v-0.1c0-0.3,0-0.7,0-1
			v-4.3c0.8,0.7,1.6,1.3,2.4,1.9c0.3,0.2,0.6,0.4,1,0.6c0.6,0.3,1.3,0.6,1.9,1c0.3,0.1,0.6,0.1,0.9,0.4c0.8,0.2,1.6,0.4,2.4,0.7
			c0.4,0,0.7,0.1,1.1,0.1c1,0.1,2,0.1,3,0.1l1.3-0.1c1.4-0.2,2.8-0.6,4.2-1.1c0.7-0.3,1.4-0.7,2.2-1.1c1.1-0.8,2.1-1.6,3.3-2.5v4.3
			c0,0.3,0,0.7,0,1C79.8,74.9,79.8,75.2,79.8,75.4z"/>
		<circle class="st4" cx="68" cy="16.2" r="6.4"/>
		<g>
			<g>
				<g>
					<g>
						<path class="st5" d="M66,15.5c0-0.1,0-0.1,0-0.2c0,0,0,0,0-0.1c0-0.1-0.1-0.1-0.1-0.2h0c0,0,0,0,0,0c0,0,0,0,0,0c0,0,0,0,0,0
							c-0.1-0.1-0.1-0.1-0.2-0.2c0,0-0.1-0.1-0.2-0.2c0,0,0,0,0,0c0,0-0.1-0.1-0.2-0.1c0,0-0.1,0-0.1,0c0,0-0.1,0-0.1-0.1
							c-0.2-0.1-0.4-0.1-0.6-0.1c-0.1,0-0.9,0-1.3,0.9c0,0-0.3,0.5-0.1,1.2c0.2,0.7,0.8,0.9,1.1,1c0,0,0,0,0,0
							c0.3,0.1,0.9,0.1,1.4-0.6c0,0,0.2-0.3,0.3-0.7c0-0.1,0-0.1,0-0.2C66,15.8,66,15.6,66,15.5z M65.1,16.5
							c-0.3,0.4-0.6,0.3-0.7,0.3c0,0-0.1,0-0.2-0.1c-0.2-0.1-0.3-0.2-0.4-0.5c-0.1-0.4,0-0.7,0-0.7C64,15,64.4,15,64.5,15
							c0.1,0,0.2,0,0.3,0h0c0,0,0,0,0,0c0,0,0,0,0,0c0,0,0,0,0,0c0,0,0,0,0.1,0c0,0,0,0,0,0c0.1,0,0.1,0.1,0.2,0.1c0,0,0,0,0,0
							c0,0,0,0,0,0c0,0,0,0,0,0.1h0c0,0,0,0.1,0,0.1c0,0.1,0.1,0.1,0.1,0.2c0,0.1,0,0.2,0,0.3C65.3,16.3,65.1,16.5,65.1,16.5z"/>
						<path class="st5" d="M66,15.5c0-0.1,0-0.1,0-0.2c0,0,0,0,0-0.1h-0.8c0,0,0,0.1,0,0.1c0,0.1,0.1,0.1,0.1,0.2c0,0.1,0,0.2,0,0.3
							c0,0.3-0.2,0.6-0.2,0.6c-0.3,0.4-0.6,0.3-0.7,0.3c0,0-0.1,0-0.2-0.1v0.7c0,0,0,0,0,0c0.3,0.1,0.9,0.1,1.4-0.6
							c0,0,0.2-0.3,0.3-0.7c0-0.1,0-0.1,0-0.2C66,15.8,66,15.6,66,15.5z"/>
					</g>
					<path class="st5" d="M66.4,16.1c-0.1,0.1-0.4,0.1-0.4,0.1c0,0,0,0,0,0c-0.4-0.1-0.5-0.3-0.6-0.4c-0.1-0.1-0.2-0.2-0.2-0.3
						c0-0.1-0.1-0.1-0.1-0.1c0,0,0,0,0,0c0,0,0,0,0,0c-0.1-0.1-0.1-0.1-0.2-0.1c0,0,0,0,0,0c0,0-0.1,0-0.1,0c0,0,0,0,0,0
						c0,0,0,0,0,0c0,0,0,0,0,0c0,0,0,0,0,0c0,0,0,0,0,0l0,0l0,0c0,0-0.1-0.8,0.4-0.5c0.1,0,0.2,0.1,0.2,0.1c0,0,0,0,0,0
						c0.1,0.1,0.2,0.2,0.2,0.2c0,0,0.1,0.1,0.1,0.2c0,0,0,0,0,0c0,0,0,0,0,0c0,0,0,0,0,0l0,0c0,0.1,0.1,0.1,0.1,0.2
						c0.2,0.2,0.4,0.1,0.5,0.1c0,0,0,0,0,0C66.5,15.5,66.5,16,66.4,16.1z"/>
				</g>
				<g>
					<path class="st5" d="M66.6,15.4h0.6v0.3c0,0,0.3-0.3,0.6-0.3c0.3,0,0.5,0.1,0.6,0.3c0,0,0.2-0.3,0.5-0.3c0.3,0,0.6,0,0.7,0.3
						c0,0,0,0.1,0,0.3c0,0.2,0,0.6,0,0.6s0,0.1,0,0.1c0,0,0.1,0,0.2,0c0,0,0.2,0,0.2,0v0.5h-0.4c0,0-0.5,0-0.6-0.2
						c0,0-0.1-0.1-0.1-0.3v-0.6c0,0,0-0.2-0.2-0.3c-0.2,0-0.3,0.1-0.3,0.3c0,0,0,0,0,0.3c0,0.3,0,0.8,0,0.8h-0.6v-1.1
						c0,0,0-0.2-0.2-0.2c-0.2,0-0.3,0.1-0.3,0.2c0,0,0,0.1,0,0.2v0.9h-0.6L66.6,15.4z"/>
				</g>
				<path class="st5" d="M70.7,17.2v-3h-0.2c0,0-0.3,0-0.4,0.1c-0.1,0.1-0.1,0.4-0.1,0.4v2.4L70.7,17.2z"/>
				<path class="st5" d="M70.8,15.3v0.6c0,0,0.3,0,0.4,0.1c0.1,0.1,0.1,0.2,0.2,0.4l0.3,0.8c0,0-0.1,0.1-0.2,0.3
					c-0.1,0.1-0.3,0.2-0.5,0.3l0,0.6c0,0,0.5,0,1-0.6c0.5-0.6,0.7-1.3,0.8-1.5c0.1-0.2,0.2-0.7,0.2-0.7l-0.6,0c0,0-0.1,0.5-0.3,1
					c0,0-0.1-0.5-0.3-0.7c-0.2-0.2-0.3-0.3-0.6-0.3C71.1,15.3,70.9,15.3,70.8,15.3z"/>
			</g>
		</g>
	</g>
</g>
<g id="Layer_4">
	<g>
		<path class="st3" d="M134.8,91c-0.6,0.8-1.3,1.1-2.3,1.1c-4,0-8.1,0-12.1,0c-0.8,0-1.2-0.2-1.4-1c-1.7-6.4-7.1-10.6-13.7-10.6
			c-6.6,0-12.1,4.2-13.8,10.7c-0.2,0.7-0.5,0.9-1.2,0.9c-8.6,0-17.3,0-25.9,0c-0.5,0-1,0-1.1-0.7C62.5,88.5,61,86,58.8,84
			c0.3-0.4,0.7-0.2,1.1-0.2c7.8,0,15.6,0,23.5,0c1.9,0,1.7,0.3,1.7-1.6c0-14.9,0-29.7,0-44.6c0-3.1,1.2-4.2,4.4-4.2c5,0,10,0,15,0
			c5,0,9,2,11.8,6c3.5,4.9,6.9,9.7,10.3,14.6c1.6,2.2,2.4,4.7,2.4,7.4c0,7,0,14,0,21c0,1,0.3,1.4,1.4,1.3c0.6-0.1,1.3,0,2,0
			c1.1-0.1,1.9,0.2,2.6,1C134.8,86.8,134.8,88.9,134.8,91z M105.3,57c3.4,0,6.8,0,10.2,0c0.8,0,1.5-0.1,1.9-0.8
			c0.4-0.8,0.2-1.4-0.3-2.1c-2.6-3.5-5.2-7.1-7.8-10.7c-0.6-0.8-1.2-1.1-2.2-1.1c-4,0-8,0-12,0c-1.7,0-2.3,0.5-2.3,2.2
			c0,3.4,0,6.8,0,10.3c0,1.7,0.6,2.2,2.4,2.2C98.6,57,102,57,105.3,57z"/>
		<path class="st3" d="M49.4,78.9c-9.3,0-18.6,0-27.9,0c-2.4,0-2.8-0.4-2.8-2.7c0-5.3,0-10.5,0-15.8c0-1.1,0.2-1.4,1.4-1.1
			C35,62.9,50.2,54.9,55,41c1.9-5.5,2.1-11.1,0.4-16.6c-0.3-1-0.2-1.3,0.9-1.3c6,0,12.1,0,18.1,0c3.5,0,5.6,2,5.6,5.4
			c0,16,0,32.1,0,48.1c0,1.8-0.6,2.3-2.6,2.3C68.2,78.9,58.8,78.9,49.4,78.9z"/>
		<path class="st3" d="M53.1,32c0,13.7-11.6,24.9-26,24.9C12.9,56.9,1.2,45.7,1.3,32c0-13.8,11.6-24.9,26-24.9
			C41.5,7.1,53.1,18.2,53.1,32z M47.2,32c0-10.6-8.9-19.2-19.9-19.2c-11.1,0-20.1,8.5-20.1,19.1c0,10.7,8.8,19.3,19.9,19.4
			C38.3,51.2,47.2,42.7,47.2,32z"/>
		<path class="st3" d="M60,94.1c0,5.7-4.8,10.2-10.8,10.2c-5.8,0-10.6-4.7-10.6-10.3c0-5.7,4.8-10.3,10.7-10.3
			C55.2,83.8,60,88.4,60,94.1z M44,93.9c-0.1,2.8,2.3,5.2,5.2,5.2c2.9,0.1,5.5-2.2,5.5-5.1c0-2.7-2.3-5.1-5.1-5.1
			C46.5,88.9,44,91,44,93.9z"/>
		<path class="st3" d="M94.5,94.1c0-5.7,4.7-10.3,10.6-10.3c5.9,0,10.7,4.6,10.7,10.3c0,5.6-4.8,10.2-10.6,10.2
			C99.3,104.3,94.5,99.8,94.5,94.1z M105.2,88.9c-3,0-5.3,2.2-5.4,5c0,2.8,2.5,5.2,5.4,5.2c2.9,0,5.3-2.3,5.3-5.1
			C110.5,91.2,108.2,89,105.2,88.9z"/>
		<path class="st3" d="M40.1,83.8c-1.9,1.8-3.2,3.5-4,5.7c0,0.1-0.1,0.2-0.1,0.2c-0.4,0.8-0.1,1.9-0.8,2.3c-0.8,0.4-1.9,0.1-2.8,0.2
			c-5.2,0-10.3,0-15.5,0c-1.9,0-2.4-0.5-2.4-2.3c0-1.4,0-2.8,0-4.1c0-1.2,0.6-1.9,1.9-1.9C24.2,83.7,31.9,83.8,40.1,83.8z"/>
		<path class="st3" d="M29.1,24c0,1.4,0.1,2.8,0,4.1c-0.1,1,0.2,1.6,1.4,1.8c1.6,0.3,3.2,0.8,4.8,1.2c1.7,0.5,2.5,1.7,2.2,3
			c-0.4,1.5-1.7,2.2-3.5,1.7c-2.6-0.6-5.2-1.3-7.8-2c-1.6-0.4-2.2-1.2-2.2-2.8c0-3.9,0-7.8,0-11.6c0-1.7,1-2.8,2.5-2.8
			c1.6-0.1,2.6,1,2.7,2.8C29.1,20.9,29.1,22.4,29.1,24z"/>
	</g>
</g>
<g id="Layer_5" class="st0">
	<g class="st1">
		<path class="st2" d="M55.8,49.8c-2,0-4,0-6,0c-0.7,0-0.9,0.2-0.9,0.9c0,3.6,0,7.3,0,10.9c0,3.6,0,7.3,0,10.9
			c0,0.6,0.1,0.9,0.8,0.9c2.1-0.1,4.2,0,6.2,0c1.2,0,1.8-0.5,1.8-1.8c0-6.6,0-13.2,0-19.9C57.7,50.3,57.2,49.8,55.8,49.8z
			 M53.3,70.3c-0.8,0-1.5-0.7-1.4-1.5c0.1-0.8,0.6-1.3,1.5-1.4c0.8,0.1,1.3,0.5,1.4,1.4C54.8,69.7,54.1,70.3,53.3,70.3z"/>
		<path class="st2" d="M81.2,57.1c0,1,0.6,1.5,1.4,1.5c0.9,0.1,1.9,0,2.9,0c1,0,1.5,0.5,1.5,1.4c0,0.9-0.5,1.4-1.4,1.5
			c-0.9,0-1.8,0-2.8,0c-1,0-1.6,0.6-1.6,1.5c0,0.9,0.6,1.4,1.6,1.4c0.9,0,1.7,0,2.6,0c0.9,0,1.6,0.4,1.6,1.4
			c0.1,0.9-0.5,1.5-1.6,1.6c-0.9,0-1.8,0-2.7,0c-0.9,0-1.4,0.4-1.5,1.3c-0.1,0.9,0.4,1.4,1.3,1.5c1,0.1,1.7,0.6,1.6,1.7
			c-0.1,0.9-0.7,1.3-2,1.3c-3.9,0-7.9,0-11.8,0c-2.7,0-5.1-1.1-7.6-1.8c-2.1-0.7-2.1-0.7-2.1-3v-15c0-0.4-0.1-0.9,0.5-1
			c3.2-0.8,5.4-3,7.2-5.6c1.8-2.4,2.9-5.2,3.5-8.1c0.2-0.9,0.6-1,1.3-0.7c1.3,0.4,2.1,1.4,2.2,2.8c0.1,2.8-0.3,5.6-1.1,8.3
			c-0.2,0.6-0.5,0.8-1,0.7c-0.6,0-1.3,0-1.9,0c-1.2,0-1.9,0.6-1.8,1.5c0,0.9,0.7,1.4,1.8,1.4c4.6,0,9.2,0,13.8,0
			c0.9,0,1.7,0.2,2,1.1c0.3,1-0.4,1.8-1.4,1.9c-0.9,0.1-1.8,0-2.8,0C81.8,55.7,81.3,56.1,81.2,57.1z"/>
		<path class="st2" d="M96.9,5.5H39.1c-4,0-7.2,3.2-7.2,7.1v86.2c0,3.9,3.2,7.1,7.2,7.1h57.8c4,0,7.2-3.2,7.2-7.1V12.6
			C104.1,8.7,100.9,5.5,96.9,5.5z M89.2,63.6c1.4,2.4,0.7,5.1-1.9,6.4c-0.5,0.3-0.6,0.4-0.5,1c0.6,2.7-1.4,5.3-4.1,5.3
			c-4.9,0-9.8,0.3-14.7-0.2c-2.4-0.2-4.7-1.3-7-2c-0.7-0.2-1-0.2-1.4,0.4c-0.8,1.2-2.1,1.8-3.5,1.8c-2.8,0-5.6,0-8.5,0
			c-1.3,0-1.7-0.5-1.7-1.8c0-8.6,0-17.2,0-25.8c0-1.3,0.5-1.8,1.7-1.8c2.8,0,5.6,0,8.3,0c1.7,0,3.1,0.7,3.9,2.2
			c0.3,0.6,0.7,0.6,1.2,0.4c2.7-1.2,4.4-3.4,5.8-5.9c1.1-1.9,1.7-4,2.2-6.1c0.5-2.3,0.7-2.4,3.1-2.3c3.2,0,5.6,2.3,5.9,5.5
			c0.2,2,0,4.1-0.4,6.1c-0.2,1.1-0.4,2.1-0.7,3.3h5.8c1,0,2.1,0,3.1,0.1c3.3,0.3,5,3.8,3.3,6.6c-0.3,0.5-0.3,0.8,0,1.2
			c1,1.5,1,3.2,0,4.7C89,62.9,89,63.2,89.2,63.6z"/>
	</g>
</g>
</svg>
